solid Untitled-5543f16d
facet normal 0.0 0.0 -1.0
  outer loop
    vertex 1.0 0.0 0.0
    vertex 0.0 -1.0 0.0
    vertex 0.0 0.0 0.0
  endloop
endfacet
facet normal 0.0 0.0 -1.0
  outer loop
    vertex 0.0 -1.0 0.0
    vertex 1.0 0.0 0.0
    vertex 1.0 -1.0 0.0
  endloop
endfacet
facet normal 1.0 0.0 0.0
  outer loop
    vertex 1.0 0.0 0.0
    vertex 1.0 -1.0 1.0
    vertex 1.0 -1.0 0.0
  endloop
endfacet
facet normal 1.0 0.0 0.0
  outer loop
    vertex 1.0 -1.0 1.0
    vertex 1.0 0.0 0.0
    vertex 1.0 0.0 1.0
  endloop
endfacet
facet normal -0.0 1.0 -0.0
  outer loop
    vertex 0.0 0.0 1.0
    vertex 1.0 0.0 0.0
    vertex 0.0 0.0 0.0
  endloop
endfacet
facet normal -0.0 1.0 -0.0
  outer loop
    vertex 1.0 0.0 0.0
    vertex 0.0 0.0 1.0
    vertex 1.0 0.0 1.0
  endloop
endfacet
facet normal -1.0 0.0 0.0
  outer loop
    vertex 0.0 0.0 1.0
    vertex 0.0 -1.0 0.0
    vertex 0.0 -1.0 1.0
  endloop
endfacet
facet normal -1.0 0.0 0.0
  outer loop
    vertex 0.0 -1.0 0.0
    vertex 0.0 0.0 1.0
    vertex 0.0 0.0 0.0
  endloop
endfacet
facet normal 0.0 -1.0 0.0
  outer loop
    vertex 1.0 -1.0 1.0
    vertex 0.0 -1.0 0.0
    vertex 1.0 -1.0 0.0
  endloop
endfacet
facet normal 0.0 -1.0 0.0
  outer loop
    vertex 0.0 -1.0 0.0
    vertex 1.0 -1.0 1.0
    vertex 0.0 -1.0 1.0
  endloop
endfacet
facet normal -0.0 -0.0 1.0
  outer loop
    vertex 1.0 -1.0 1.0
    vertex 0.0 0.0 1.0
    vertex 0.0 -1.0 1.0
  endloop
endfacet
facet normal -0.0 -0.0 1.0
  outer loop
    vertex 0.0 0.0 1.0
    vertex 1.0 -1.0 1.0
    vertex 1.0 0.0 1.0
  endloop
endfacet
endsolid Untitled-5543f16d
