G75*
%MOIN*%
%OFA0B0*%
%FSLAX24Y24*%
%IPPOS*%
%LPD*%
%AMOC8*
5,1,8,0,0,1.08239X$1,22.5*
%
%ADD10C,0.0000*%
D10*
X000000Y000000D02*
X000000Y016996D01*
X039620Y016996D01*
X039620Y000000D01*
X000000Y000000D01*
X000620Y001250D02*
X000622Y001300D01*
X000628Y001350D01*
X000638Y001399D01*
X000652Y001447D01*
X000669Y001494D01*
X000690Y001539D01*
X000715Y001583D01*
X000743Y001624D01*
X000775Y001663D01*
X000809Y001700D01*
X000846Y001734D01*
X000886Y001764D01*
X000928Y001791D01*
X000972Y001815D01*
X001018Y001836D01*
X001065Y001852D01*
X001113Y001865D01*
X001163Y001874D01*
X001212Y001879D01*
X001263Y001880D01*
X001313Y001877D01*
X001362Y001870D01*
X001411Y001859D01*
X001459Y001844D01*
X001505Y001826D01*
X001550Y001804D01*
X001593Y001778D01*
X001634Y001749D01*
X001673Y001717D01*
X001709Y001682D01*
X001741Y001644D01*
X001771Y001604D01*
X001798Y001561D01*
X001821Y001517D01*
X001840Y001471D01*
X001856Y001423D01*
X001868Y001374D01*
X001876Y001325D01*
X001880Y001275D01*
X001880Y001225D01*
X001876Y001175D01*
X001868Y001126D01*
X001856Y001077D01*
X001840Y001029D01*
X001821Y000983D01*
X001798Y000939D01*
X001771Y000896D01*
X001741Y000856D01*
X001709Y000818D01*
X001673Y000783D01*
X001634Y000751D01*
X001593Y000722D01*
X001550Y000696D01*
X001505Y000674D01*
X001459Y000656D01*
X001411Y000641D01*
X001362Y000630D01*
X001313Y000623D01*
X001263Y000620D01*
X001212Y000621D01*
X001163Y000626D01*
X001113Y000635D01*
X001065Y000648D01*
X001018Y000664D01*
X000972Y000685D01*
X000928Y000709D01*
X000886Y000736D01*
X000846Y000766D01*
X000809Y000800D01*
X000775Y000837D01*
X000743Y000876D01*
X000715Y000917D01*
X000690Y000961D01*
X000669Y001006D01*
X000652Y001053D01*
X000638Y001101D01*
X000628Y001150D01*
X000622Y001200D01*
X000620Y001250D01*
X000620Y015750D02*
X000622Y015800D01*
X000628Y015850D01*
X000638Y015899D01*
X000652Y015947D01*
X000669Y015994D01*
X000690Y016039D01*
X000715Y016083D01*
X000743Y016124D01*
X000775Y016163D01*
X000809Y016200D01*
X000846Y016234D01*
X000886Y016264D01*
X000928Y016291D01*
X000972Y016315D01*
X001018Y016336D01*
X001065Y016352D01*
X001113Y016365D01*
X001163Y016374D01*
X001212Y016379D01*
X001263Y016380D01*
X001313Y016377D01*
X001362Y016370D01*
X001411Y016359D01*
X001459Y016344D01*
X001505Y016326D01*
X001550Y016304D01*
X001593Y016278D01*
X001634Y016249D01*
X001673Y016217D01*
X001709Y016182D01*
X001741Y016144D01*
X001771Y016104D01*
X001798Y016061D01*
X001821Y016017D01*
X001840Y015971D01*
X001856Y015923D01*
X001868Y015874D01*
X001876Y015825D01*
X001880Y015775D01*
X001880Y015725D01*
X001876Y015675D01*
X001868Y015626D01*
X001856Y015577D01*
X001840Y015529D01*
X001821Y015483D01*
X001798Y015439D01*
X001771Y015396D01*
X001741Y015356D01*
X001709Y015318D01*
X001673Y015283D01*
X001634Y015251D01*
X001593Y015222D01*
X001550Y015196D01*
X001505Y015174D01*
X001459Y015156D01*
X001411Y015141D01*
X001362Y015130D01*
X001313Y015123D01*
X001263Y015120D01*
X001212Y015121D01*
X001163Y015126D01*
X001113Y015135D01*
X001065Y015148D01*
X001018Y015164D01*
X000972Y015185D01*
X000928Y015209D01*
X000886Y015236D01*
X000846Y015266D01*
X000809Y015300D01*
X000775Y015337D01*
X000743Y015376D01*
X000715Y015417D01*
X000690Y015461D01*
X000669Y015506D01*
X000652Y015553D01*
X000638Y015601D01*
X000628Y015650D01*
X000622Y015700D01*
X000620Y015750D01*
X037870Y015750D02*
X037872Y015800D01*
X037878Y015850D01*
X037888Y015899D01*
X037902Y015947D01*
X037919Y015994D01*
X037940Y016039D01*
X037965Y016083D01*
X037993Y016124D01*
X038025Y016163D01*
X038059Y016200D01*
X038096Y016234D01*
X038136Y016264D01*
X038178Y016291D01*
X038222Y016315D01*
X038268Y016336D01*
X038315Y016352D01*
X038363Y016365D01*
X038413Y016374D01*
X038462Y016379D01*
X038513Y016380D01*
X038563Y016377D01*
X038612Y016370D01*
X038661Y016359D01*
X038709Y016344D01*
X038755Y016326D01*
X038800Y016304D01*
X038843Y016278D01*
X038884Y016249D01*
X038923Y016217D01*
X038959Y016182D01*
X038991Y016144D01*
X039021Y016104D01*
X039048Y016061D01*
X039071Y016017D01*
X039090Y015971D01*
X039106Y015923D01*
X039118Y015874D01*
X039126Y015825D01*
X039130Y015775D01*
X039130Y015725D01*
X039126Y015675D01*
X039118Y015626D01*
X039106Y015577D01*
X039090Y015529D01*
X039071Y015483D01*
X039048Y015439D01*
X039021Y015396D01*
X038991Y015356D01*
X038959Y015318D01*
X038923Y015283D01*
X038884Y015251D01*
X038843Y015222D01*
X038800Y015196D01*
X038755Y015174D01*
X038709Y015156D01*
X038661Y015141D01*
X038612Y015130D01*
X038563Y015123D01*
X038513Y015120D01*
X038462Y015121D01*
X038413Y015126D01*
X038363Y015135D01*
X038315Y015148D01*
X038268Y015164D01*
X038222Y015185D01*
X038178Y015209D01*
X038136Y015236D01*
X038096Y015266D01*
X038059Y015300D01*
X038025Y015337D01*
X037993Y015376D01*
X037965Y015417D01*
X037940Y015461D01*
X037919Y015506D01*
X037902Y015553D01*
X037888Y015601D01*
X037878Y015650D01*
X037872Y015700D01*
X037870Y015750D01*
X037870Y001000D02*
X037872Y001050D01*
X037878Y001100D01*
X037888Y001149D01*
X037902Y001197D01*
X037919Y001244D01*
X037940Y001289D01*
X037965Y001333D01*
X037993Y001374D01*
X038025Y001413D01*
X038059Y001450D01*
X038096Y001484D01*
X038136Y001514D01*
X038178Y001541D01*
X038222Y001565D01*
X038268Y001586D01*
X038315Y001602D01*
X038363Y001615D01*
X038413Y001624D01*
X038462Y001629D01*
X038513Y001630D01*
X038563Y001627D01*
X038612Y001620D01*
X038661Y001609D01*
X038709Y001594D01*
X038755Y001576D01*
X038800Y001554D01*
X038843Y001528D01*
X038884Y001499D01*
X038923Y001467D01*
X038959Y001432D01*
X038991Y001394D01*
X039021Y001354D01*
X039048Y001311D01*
X039071Y001267D01*
X039090Y001221D01*
X039106Y001173D01*
X039118Y001124D01*
X039126Y001075D01*
X039130Y001025D01*
X039130Y000975D01*
X039126Y000925D01*
X039118Y000876D01*
X039106Y000827D01*
X039090Y000779D01*
X039071Y000733D01*
X039048Y000689D01*
X039021Y000646D01*
X038991Y000606D01*
X038959Y000568D01*
X038923Y000533D01*
X038884Y000501D01*
X038843Y000472D01*
X038800Y000446D01*
X038755Y000424D01*
X038709Y000406D01*
X038661Y000391D01*
X038612Y000380D01*
X038563Y000373D01*
X038513Y000370D01*
X038462Y000371D01*
X038413Y000376D01*
X038363Y000385D01*
X038315Y000398D01*
X038268Y000414D01*
X038222Y000435D01*
X038178Y000459D01*
X038136Y000486D01*
X038096Y000516D01*
X038059Y000550D01*
X038025Y000587D01*
X037993Y000626D01*
X037965Y000667D01*
X037940Y000711D01*
X037919Y000756D01*
X037902Y000803D01*
X037888Y000851D01*
X037878Y000900D01*
X037872Y000950D01*
X037870Y001000D01*
M02*
