%
M48
M72
T01C0.0400
%
T01
X3750Y2500
X3750Y3500
X3750Y4750
X3750Y5750
X3750Y7000
X3750Y8000
X3750Y9250
X3750Y10250
X3750Y11500
X3750Y12500
X3750Y13750
X3750Y14750
X6250Y14500
X7250Y14500
X8500Y14500
X9500Y14500
X10750Y14500
X11750Y14500
X13000Y14500
X14000Y14500
X15250Y14500
X16250Y14500
X17500Y14500
X18500Y14500
X19750Y14500
X20750Y14500
X22000Y14500
X23000Y14500
X24250Y14500
X25250Y14500
X26500Y14500
X27500Y14500
X28750Y14500
X29750Y14500
X31000Y14500
X32000Y14500
X33250Y14500
X34250Y14500
X36250Y14500
X36250Y13500
X36250Y12250
X36250Y11250
X36250Y10000
X36250Y9000
X36250Y7750
X36250Y6750
X36250Y5500
X36250Y4500
X36250Y3250
X36250Y2250
X32500Y7500
X31500Y7500
X30500Y7500
X29500Y7500
X28500Y7500
X27500Y7500
X26500Y7500
X25500Y7500
X24500Y7500
X23500Y7500
X22500Y7500
X21500Y7500
X20500Y7500
X19500Y7500
X18500Y7500
X17500Y7500
X16500Y7500
X15500Y7500
X14500Y7500
X13500Y7500
X12500Y7500
X11500Y7500
X10500Y7500
X9500Y7500
X8500Y7500
X8500Y8470
X9500Y8470
X10500Y8470
X11500Y8470
X12500Y8470
X13500Y8470
X14500Y8470
X15500Y8470
X16500Y8470
X17500Y8470
X18500Y8470
X19500Y8470
X20500Y8470
X21500Y8470
X22500Y8470
X23500Y8470
X24500Y8470
X25500Y8470
X26500Y8470
X27500Y8470
X28500Y8470
X29500Y8470
X30500Y8470
X31500Y8470
X32500Y8470
M30
