<?xml version="1.0" encoding="utf-8"?>
<!-- Generator: Adobe Illustrator 15.0.0, SVG Export Plug-In . SVG Version: 6.00 Build 0)  -->
<!DOCTYPE svg PUBLIC "-//W3C//DTD SVG 1.1//EN" "http://www.w3.org/Graphics/SVG/1.1/DTD/svg11.dtd">
<svg version="1.1" id="Layer_1" xmlns="http://www.w3.org/2000/svg" xmlns:xlink="http://www.w3.org/1999/xlink" x="0px" y="0px"
	 width="1022.977px" height="789.984px" viewBox="0 0 1022.977 789.984" enable-background="new 0 0 1022.977 789.984"
	 xml:space="preserve">
<g transform="translate(22.5, 22.5) ">
	<polygon fill="none" stroke="#FF0000" stroke-width="0.9" points="-4.5,-4.5 32.148,-4.5 32.148,3.996 68.796,3.996 68.796,-4.5 
		97.596,-4.5 97.596,3.996 126.396,3.996 126.396,-4.5 155.196,-4.5 155.196,3.996 191.844,3.996 191.844,-4.5 228.492,-4.5 
		228.492,32.148 219.996,32.148 219.996,68.796 228.492,68.796 228.492,97.596 219.996,97.596 219.996,126.396 228.492,126.396 
		228.492,155.196 219.996,155.196 219.996,191.844 228.492,191.844 228.492,228.492 191.844,228.492 191.844,219.996 
		155.196,219.996 155.196,228.492 126.396,228.492 126.396,219.996 97.596,219.996 97.596,228.492 68.796,228.492 68.796,219.996 
		32.148,219.996 32.148,228.492 -4.5,228.492 -4.5,191.844 3.996,191.844 3.996,155.196 -4.5,155.196 -4.5,126.396 3.996,126.396 
		3.996,97.596 -4.5,97.596 -4.5,68.796 3.996,68.796 3.996,32.148 -4.5,32.148 	"/>
</g>
<g transform="translate(313.73999999999995, 22.5) ">
	<polygon fill="none" stroke="#FF0000" stroke-width="0.9" points="-62.748,-4.5 -26.1,-4.5 -26.1,3.996 10.548,3.996 10.548,-4.5 
		39.348,-4.5 39.348,3.996 68.148,3.996 68.148,-4.5 96.948,-4.5 96.948,3.996 133.596,3.996 133.596,-4.5 170.244,-4.5 
		170.244,32.148 161.748,32.148 161.748,68.796 170.244,68.796 170.244,97.596 161.748,97.596 161.748,126.396 170.244,126.396 
		170.244,155.196 161.748,155.196 161.748,191.844 170.244,191.844 170.244,228.492 133.596,228.492 133.596,219.996 
		96.948,219.996 96.948,228.492 68.148,228.492 68.148,219.996 39.348,219.996 39.348,228.492 10.548,228.492 10.548,219.996 
		-26.1,219.996 -26.1,228.492 -62.748,228.492 -62.748,191.844 -54.252,191.844 -54.252,155.196 -62.748,155.196 -62.748,126.396 
		-54.252,126.396 -54.252,97.596 -62.748,97.596 -62.748,68.796 -54.252,68.796 -54.252,32.148 -62.748,32.148 	"/>
</g>
<g transform="translate(604.9799999999999, 22.5) ">
	<polygon fill="none" stroke="#FF0000" stroke-width="0.9" points="-112.5,-4.5 -84.348,-4.5 -84.348,3.996 -47.7,3.996 -47.7,-4.5 
		-18.9,-4.5 -18.9,3.996 9.9,3.996 9.9,-4.5 38.7,-4.5 38.7,3.996 67.5,3.996 67.5,-4.5 96.3,-4.5 96.3,3.996 125.1,3.996 
		125.1,-4.5 153.9,-4.5 153.9,3.996 182.7,3.996 182.7,-4.5 211.5,-4.5 211.5,3.996 240.3,3.996 240.3,-4.5 269.1,-4.5 269.1,3.996 
		297.9,3.996 297.9,-4.5 326.7,-4.5 326.7,3.996 363.348,3.996 363.348,-4.5 391.5,-4.5 391.5,32.148 399.997,32.148 
		399.997,68.796 391.5,68.796 391.5,97.596 399.997,97.596 399.997,126.396 391.5,126.396 391.5,155.196 399.997,155.196 
		399.997,191.844 391.5,191.844 391.5,228.492 363.348,228.492 363.348,219.996 326.7,219.996 326.7,228.492 297.9,228.492 
		297.9,219.996 269.1,219.996 269.1,228.492 240.3,228.492 240.3,219.996 211.5,219.996 211.5,228.492 182.7,228.492 182.7,219.996 
		153.9,219.996 153.9,228.492 125.1,228.492 125.1,219.996 96.3,219.996 96.3,228.492 67.5,228.492 67.5,219.996 38.7,219.996 
		38.7,228.492 9.9,228.492 9.9,219.996 -18.9,219.996 -18.9,228.492 -47.7,228.492 -47.7,219.996 -84.348,219.996 -84.348,228.492 
		-112.5,228.492 -112.5,191.844 -120.996,191.844 -120.996,155.196 -112.5,155.196 -112.5,126.396 -120.996,126.396 
		-120.996,97.596 -112.5,97.596 -112.5,68.796 -120.996,68.796 -120.996,32.148 -112.5,32.148 	"/>
</g>
<g transform="translate(604.9799999999999, 313.73999999999995) ">
	<polygon fill="none" stroke="#FF0000" stroke-width="0.9" points="-112.5,-62.748 -84.348,-62.748 -84.348,-54.252 -47.7,-54.252 
		-47.7,-62.748 -18.9,-62.748 -18.9,-54.252 9.9,-54.252 9.9,-62.748 38.7,-62.748 38.7,-54.252 67.5,-54.252 67.5,-62.748 
		96.3,-62.748 96.3,-54.252 125.1,-54.252 125.1,-62.748 153.9,-62.748 153.9,-54.252 182.7,-54.252 182.7,-62.748 211.5,-62.748 
		211.5,-54.252 240.3,-54.252 240.3,-62.748 269.1,-62.748 269.1,-54.252 297.9,-54.252 297.9,-62.748 326.7,-62.748 326.7,-54.252 
		363.348,-54.252 363.348,-62.748 391.5,-62.748 391.5,-26.1 399.997,-26.1 399.997,10.548 391.5,10.548 391.5,39.348 
		399.997,39.348 399.997,68.148 391.5,68.148 391.5,96.948 399.997,96.948 399.997,133.596 391.5,133.596 391.5,170.244 
		363.348,170.244 363.348,161.748 326.7,161.748 326.7,170.244 297.9,170.244 297.9,161.748 269.1,161.748 269.1,170.244 
		240.3,170.244 240.3,161.748 211.5,161.748 211.5,170.244 182.7,170.244 182.7,161.748 153.9,161.748 153.9,170.244 125.1,170.244 
		125.1,161.748 96.3,161.748 96.3,170.244 67.5,170.244 67.5,161.748 38.7,161.748 38.7,170.244 9.9,170.244 9.9,161.748 
		-18.9,161.748 -18.9,170.244 -47.7,170.244 -47.7,161.748 -84.348,161.748 -84.348,170.244 -112.5,170.244 -112.5,133.596 
		-120.996,133.596 -120.996,96.948 -112.5,96.948 -112.5,68.148 -120.996,68.148 -120.996,39.348 -112.5,39.348 -112.5,10.548 
		-120.996,10.548 -120.996,-26.1 -112.5,-26.1 	"/>
</g>
<g transform="translate(22.5, 313.73999999999995) ">
	<polygon fill="none" stroke="#FF0000" stroke-width="0.9" points="3.996,-54.252 32.148,-54.252 32.148,-62.748 68.796,-62.748 
		68.796,-54.252 97.596,-54.252 97.596,-62.748 126.396,-62.748 126.396,-54.252 155.196,-54.252 155.196,-62.748 191.844,-62.748 
		191.844,-54.252 219.996,-54.252 219.996,-26.1 228.492,-26.1 228.492,10.548 219.996,10.548 219.996,39.348 228.492,39.348 
		228.492,68.148 219.996,68.148 219.996,96.948 228.492,96.948 228.492,125.748 219.996,125.748 219.996,154.548 228.492,154.548 
		228.492,183.348 219.996,183.348 219.996,212.148 228.492,212.148 228.492,240.948 219.996,240.948 219.996,269.748 
		228.492,269.748 228.492,298.548 219.996,298.548 219.996,327.348 228.492,327.348 228.492,356.148 219.996,356.148 
		219.996,384.948 228.492,384.948 228.492,421.596 219.996,421.596 219.996,449.748 191.844,449.748 191.844,458.244 
		155.196,458.244 155.196,449.748 126.396,449.748 126.396,458.244 97.596,458.244 97.596,449.748 68.796,449.748 68.796,458.244 
		32.148,458.244 32.148,449.748 3.996,449.748 3.996,421.596 -4.5,421.596 -4.5,384.948 3.996,384.948 3.996,356.148 -4.5,356.148 
		-4.5,327.348 3.996,327.348 3.996,298.548 -4.5,298.548 -4.5,269.748 3.996,269.748 3.996,240.948 -4.5,240.948 -4.5,212.148 
		3.996,212.148 3.996,183.348 -4.5,183.348 -4.5,154.548 3.996,154.548 3.996,125.748 -4.5,125.748 -4.5,96.948 3.996,96.948 
		3.996,68.148 -4.5,68.148 -4.5,39.348 3.996,39.348 3.996,10.548 -4.5,10.548 -4.5,-26.1 3.996,-26.1 	"/>
</g>
<g transform="translate(313.73999999999995, 313.73999999999995) ">
	<polygon fill="none" stroke="#FF0000" stroke-width="0.9" points="-54.252,-54.252 -26.1,-54.252 -26.1,-62.748 10.548,-62.748 
		10.548,-54.252 39.348,-54.252 39.348,-62.748 68.148,-62.748 68.148,-54.252 96.948,-54.252 96.948,-62.748 133.596,-62.748 
		133.596,-54.252 161.748,-54.252 161.748,-26.1 170.244,-26.1 170.244,10.548 161.748,10.548 161.748,39.348 170.244,39.348 
		170.244,68.148 161.748,68.148 161.748,96.948 170.244,96.948 170.244,125.748 161.748,125.748 161.748,154.548 170.244,154.548 
		170.244,183.348 161.748,183.348 161.748,212.148 170.244,212.148 170.244,240.948 161.748,240.948 161.748,269.748 
		170.244,269.748 170.244,298.548 161.748,298.548 161.748,327.348 170.244,327.348 170.244,356.148 161.748,356.148 
		161.748,384.948 170.244,384.948 170.244,421.596 161.748,421.596 161.748,449.748 133.596,449.748 133.596,458.244 
		96.948,458.244 96.948,449.748 68.148,449.748 68.148,458.244 39.348,458.244 39.348,449.748 10.548,449.748 10.548,458.244 
		-26.1,458.244 -26.1,449.748 -54.252,449.748 -54.252,421.596 -62.748,421.596 -62.748,384.948 -54.252,384.948 -54.252,356.148 
		-62.748,356.148 -62.748,327.348 -54.252,327.348 -54.252,298.548 -62.748,298.548 -62.748,269.748 -54.252,269.748 
		-54.252,240.948 -62.748,240.948 -62.748,212.148 -54.252,212.148 -54.252,183.348 -62.748,183.348 -62.748,154.548 
		-54.252,154.548 -54.252,125.748 -62.748,125.748 -62.748,96.948 -54.252,96.948 -54.252,68.148 -62.748,68.148 -62.748,39.348 
		-54.252,39.348 -54.252,10.548 -62.748,10.548 -62.748,-26.1 -54.252,-26.1 	"/>
</g>
<circle fill="#FFFFFF" stroke="#FF0000" stroke-miterlimit="10" cx="133.988" cy="130.492" r="8.8"/>
<circle fill="#FFFFFF" stroke="#FF0000" stroke-miterlimit="10" cx="367.488" cy="174.492" r="10.5"/>
<path fill="#FFFFFF" stroke="#FF0000" stroke-miterlimit="10" d="M425.088,137.692c0,3.976-3.224,7.2-7.2,7.2h-100.8
	c-3.977,0-7.2-3.224-7.2-7.2v-14.4c0-3.977,3.224-7.2,7.2-7.2h100.8c3.977,0,7.2,3.224,7.2,7.2V137.692z"/>
<circle fill="#FFFFFF" stroke="#FF0000" stroke-miterlimit="10" cx="301.392" cy="130.492" r="5.04"/>
<circle fill="#FFFFFF" stroke="#FF0000" stroke-miterlimit="10" cx="433.646" cy="130.492" r="5.04"/>
<circle fill="#FFFFFF" stroke="#FF0000" stroke-miterlimit="10" cx="78.71" cy="374.738" r="4.68"/>
<circle fill="#FFFFFF" stroke="#FF0000" stroke-miterlimit="10" cx="190.282" cy="374.738" r="4.68"/>
<circle fill="#FFFFFF" stroke="#FF0000" stroke-miterlimit="10" cx="78.71" cy="648.238" r="4.68"/>
<circle fill="#FFFFFF" stroke="#FF0000" stroke-miterlimit="10" cx="190.282" cy="648.238" r="4.68"/>
</svg>
