G75*
%MOIN*%
%OFA0B0*%
%FSLAX24Y24*%
%IPPOS*%
%LPD*%
%AMOC8*
5,1,8,0,0,1.08239X$1,22.5*
%
%ADD10C,0.0600*%
%ADD11C,0.0740*%
%ADD12C,0.0080*%
D10*
X002200Y001500D02*
X002800Y001500D01*
X002800Y002500D02*
X002200Y002500D01*
X002200Y004000D02*
X002800Y004000D01*
X002800Y005000D02*
X002200Y005000D01*
X002200Y006500D02*
X002800Y006500D01*
X002800Y007500D02*
X002200Y007500D01*
X002200Y009000D02*
X002800Y009000D01*
X002800Y010000D02*
X002200Y010000D01*
X007000Y010200D02*
X007000Y010800D01*
X008000Y010800D02*
X008000Y010200D01*
X009500Y010200D02*
X009500Y010800D01*
X010500Y010800D02*
X010500Y010200D01*
X012000Y010200D02*
X012000Y010800D01*
X013000Y010800D02*
X013000Y010200D01*
X014500Y010200D02*
X014500Y010800D01*
X015500Y010800D02*
X015500Y010200D01*
X017000Y010200D02*
X017000Y010800D01*
X018000Y010800D02*
X018000Y010200D01*
X021700Y010000D02*
X022300Y010000D01*
X022300Y009000D02*
X021700Y009000D01*
X021700Y007500D02*
X022300Y007500D01*
X022300Y006500D02*
X021700Y006500D01*
X021700Y005000D02*
X022300Y005000D01*
X022300Y004000D02*
X021700Y004000D01*
X021700Y002500D02*
X022300Y002500D01*
X022300Y001500D02*
X021700Y001500D01*
D11*
X018500Y005000D03*
X017500Y005000D03*
X016500Y005000D03*
X015500Y005000D03*
X014500Y005000D03*
X013500Y005000D03*
X012500Y005000D03*
X011500Y005000D03*
X010500Y005000D03*
X009500Y005000D03*
X008500Y005000D03*
X007500Y005000D03*
X006500Y005000D03*
X006500Y006000D03*
X007500Y006000D03*
X008500Y006000D03*
X009500Y006000D03*
X010500Y006000D03*
X011500Y006000D03*
X012500Y006000D03*
X013500Y006000D03*
X014500Y006000D03*
X015500Y006000D03*
X016500Y006000D03*
X017500Y006000D03*
X018500Y006000D03*
D12*
X002000Y001000D02*
X001500Y001500D01*
X001500Y009000D01*
X002500Y010000D01*
X002500Y009000D02*
X008250Y009000D01*
X008250Y007500D01*
X009500Y006250D01*
X009500Y006000D01*
X009000Y005500D02*
X009000Y006500D01*
X008000Y007500D01*
X002500Y007500D01*
X002500Y006500D02*
X006000Y006500D01*
X006250Y006750D01*
X008500Y006750D01*
X008500Y006000D01*
X009000Y005500D02*
X008500Y005000D01*
X008000Y005250D02*
X007750Y005500D01*
X007000Y005500D01*
X006500Y006000D01*
X006000Y006000D02*
X006000Y006250D01*
X006250Y006500D01*
X007500Y006500D01*
X007500Y006000D01*
X006750Y005500D02*
X007250Y005000D01*
X007500Y005000D01*
X008000Y005250D02*
X008000Y001500D01*
X002500Y001500D01*
X002000Y001000D02*
X009500Y001000D01*
X009500Y005000D01*
X010500Y005000D02*
X011000Y005500D01*
X011000Y007500D01*
X008000Y010500D01*
X007000Y010500D02*
X009750Y007750D01*
X009750Y006750D01*
X010500Y006000D01*
X011500Y006000D02*
X011500Y008500D01*
X009500Y010500D01*
X010500Y010500D02*
X012000Y009000D01*
X012000Y005500D01*
X011500Y005000D01*
X012500Y005000D02*
X013000Y005500D01*
X013000Y010500D01*
X012500Y010000D02*
X012500Y006000D01*
X013500Y006000D02*
X013500Y009500D01*
X014500Y010500D01*
X015500Y010500D02*
X014000Y009000D01*
X014000Y005500D01*
X013500Y005000D01*
X014500Y005000D02*
X015000Y005500D01*
X015000Y007500D01*
X018000Y010500D01*
X018500Y010000D02*
X015500Y007000D01*
X015500Y006000D01*
X016000Y005500D02*
X015500Y005000D01*
X016000Y005500D02*
X016000Y007000D01*
X017750Y008750D01*
X017750Y009000D01*
X022000Y009000D01*
X022000Y010000D02*
X018500Y010000D01*
X017000Y010500D02*
X014500Y008000D01*
X014500Y006000D01*
X016500Y006000D02*
X016750Y006250D01*
X016750Y007500D01*
X022000Y007500D01*
X022000Y006500D02*
X019000Y006500D01*
X018750Y006750D01*
X017000Y006750D01*
X017000Y005500D01*
X016500Y005000D01*
X017000Y005250D02*
X017250Y005500D01*
X018500Y005500D01*
X018500Y006000D01*
X018750Y006500D02*
X019000Y006250D01*
X019000Y005000D01*
X022000Y005000D01*
X022500Y004500D02*
X018500Y004500D01*
X018500Y005000D01*
X017500Y005000D02*
X017500Y004000D01*
X022000Y004000D01*
X022500Y004500D02*
X022750Y004250D01*
X022750Y002250D01*
X022000Y001500D01*
X022000Y002500D02*
X017000Y002500D01*
X017000Y005250D01*
X017500Y006000D02*
X017500Y006500D01*
X018750Y006500D01*
X012500Y010000D02*
X012000Y010500D01*
X006000Y006000D02*
X002500Y006000D01*
X001750Y005250D01*
X001750Y004750D01*
X002500Y004000D01*
X002500Y005000D02*
X006000Y005000D01*
X006000Y005250D01*
X006250Y005500D01*
X006750Y005500D01*
X006500Y005000D02*
X006500Y002500D01*
X002500Y002500D01*
M02*
