G75*
%MOIN*%
%OFA0B0*%
%FSLAX24Y24*%
%IPPOS*%
%LPD*%
%AMOC8*
5,1,8,0,0,1.08239X$1,22.5*
%
%ADD10C,0.0000*%
D10*
X000000Y000000D02*
X000000Y013496D01*
X024370Y013496D01*
X024370Y000000D01*
X000000Y000000D01*
X012370Y001500D02*
X012372Y001550D01*
X012378Y001600D01*
X012388Y001649D01*
X012402Y001697D01*
X012419Y001744D01*
X012440Y001789D01*
X012465Y001833D01*
X012493Y001874D01*
X012525Y001913D01*
X012559Y001950D01*
X012596Y001984D01*
X012636Y002014D01*
X012678Y002041D01*
X012722Y002065D01*
X012768Y002086D01*
X012815Y002102D01*
X012863Y002115D01*
X012913Y002124D01*
X012962Y002129D01*
X013013Y002130D01*
X013063Y002127D01*
X013112Y002120D01*
X013161Y002109D01*
X013209Y002094D01*
X013255Y002076D01*
X013300Y002054D01*
X013343Y002028D01*
X013384Y001999D01*
X013423Y001967D01*
X013459Y001932D01*
X013491Y001894D01*
X013521Y001854D01*
X013548Y001811D01*
X013571Y001767D01*
X013590Y001721D01*
X013606Y001673D01*
X013618Y001624D01*
X013626Y001575D01*
X013630Y001525D01*
X013630Y001475D01*
X013626Y001425D01*
X013618Y001376D01*
X013606Y001327D01*
X013590Y001279D01*
X013571Y001233D01*
X013548Y001189D01*
X013521Y001146D01*
X013491Y001106D01*
X013459Y001068D01*
X013423Y001033D01*
X013384Y001001D01*
X013343Y000972D01*
X013300Y000946D01*
X013255Y000924D01*
X013209Y000906D01*
X013161Y000891D01*
X013112Y000880D01*
X013063Y000873D01*
X013013Y000870D01*
X012962Y000871D01*
X012913Y000876D01*
X012863Y000885D01*
X012815Y000898D01*
X012768Y000914D01*
X012722Y000935D01*
X012678Y000959D01*
X012636Y000986D01*
X012596Y001016D01*
X012559Y001050D01*
X012525Y001087D01*
X012493Y001126D01*
X012465Y001167D01*
X012440Y001211D01*
X012419Y001256D01*
X012402Y001303D01*
X012388Y001351D01*
X012378Y001400D01*
X012372Y001450D01*
X012370Y001500D01*
X021370Y012500D02*
X021372Y012550D01*
X021378Y012600D01*
X021388Y012649D01*
X021402Y012697D01*
X021419Y012744D01*
X021440Y012789D01*
X021465Y012833D01*
X021493Y012874D01*
X021525Y012913D01*
X021559Y012950D01*
X021596Y012984D01*
X021636Y013014D01*
X021678Y013041D01*
X021722Y013065D01*
X021768Y013086D01*
X021815Y013102D01*
X021863Y013115D01*
X021913Y013124D01*
X021962Y013129D01*
X022013Y013130D01*
X022063Y013127D01*
X022112Y013120D01*
X022161Y013109D01*
X022209Y013094D01*
X022255Y013076D01*
X022300Y013054D01*
X022343Y013028D01*
X022384Y012999D01*
X022423Y012967D01*
X022459Y012932D01*
X022491Y012894D01*
X022521Y012854D01*
X022548Y012811D01*
X022571Y012767D01*
X022590Y012721D01*
X022606Y012673D01*
X022618Y012624D01*
X022626Y012575D01*
X022630Y012525D01*
X022630Y012475D01*
X022626Y012425D01*
X022618Y012376D01*
X022606Y012327D01*
X022590Y012279D01*
X022571Y012233D01*
X022548Y012189D01*
X022521Y012146D01*
X022491Y012106D01*
X022459Y012068D01*
X022423Y012033D01*
X022384Y012001D01*
X022343Y011972D01*
X022300Y011946D01*
X022255Y011924D01*
X022209Y011906D01*
X022161Y011891D01*
X022112Y011880D01*
X022063Y011873D01*
X022013Y011870D01*
X021962Y011871D01*
X021913Y011876D01*
X021863Y011885D01*
X021815Y011898D01*
X021768Y011914D01*
X021722Y011935D01*
X021678Y011959D01*
X021636Y011986D01*
X021596Y012016D01*
X021559Y012050D01*
X021525Y012087D01*
X021493Y012126D01*
X021465Y012167D01*
X021440Y012211D01*
X021419Y012256D01*
X021402Y012303D01*
X021388Y012351D01*
X021378Y012400D01*
X021372Y012450D01*
X021370Y012500D01*
X001870Y012500D02*
X001872Y012550D01*
X001878Y012600D01*
X001888Y012649D01*
X001902Y012697D01*
X001919Y012744D01*
X001940Y012789D01*
X001965Y012833D01*
X001993Y012874D01*
X002025Y012913D01*
X002059Y012950D01*
X002096Y012984D01*
X002136Y013014D01*
X002178Y013041D01*
X002222Y013065D01*
X002268Y013086D01*
X002315Y013102D01*
X002363Y013115D01*
X002413Y013124D01*
X002462Y013129D01*
X002513Y013130D01*
X002563Y013127D01*
X002612Y013120D01*
X002661Y013109D01*
X002709Y013094D01*
X002755Y013076D01*
X002800Y013054D01*
X002843Y013028D01*
X002884Y012999D01*
X002923Y012967D01*
X002959Y012932D01*
X002991Y012894D01*
X003021Y012854D01*
X003048Y012811D01*
X003071Y012767D01*
X003090Y012721D01*
X003106Y012673D01*
X003118Y012624D01*
X003126Y012575D01*
X003130Y012525D01*
X003130Y012475D01*
X003126Y012425D01*
X003118Y012376D01*
X003106Y012327D01*
X003090Y012279D01*
X003071Y012233D01*
X003048Y012189D01*
X003021Y012146D01*
X002991Y012106D01*
X002959Y012068D01*
X002923Y012033D01*
X002884Y012001D01*
X002843Y011972D01*
X002800Y011946D01*
X002755Y011924D01*
X002709Y011906D01*
X002661Y011891D01*
X002612Y011880D01*
X002563Y011873D01*
X002513Y011870D01*
X002462Y011871D01*
X002413Y011876D01*
X002363Y011885D01*
X002315Y011898D01*
X002268Y011914D01*
X002222Y011935D01*
X002178Y011959D01*
X002136Y011986D01*
X002096Y012016D01*
X002059Y012050D01*
X002025Y012087D01*
X001993Y012126D01*
X001965Y012167D01*
X001940Y012211D01*
X001919Y012256D01*
X001902Y012303D01*
X001888Y012351D01*
X001878Y012400D01*
X001872Y012450D01*
X001870Y012500D01*
M02*
