G75*
%MOIN*%
%OFA0B0*%
%FSLAX24Y24*%
%IPPOS*%
%LPD*%
%AMOC8*
5,1,8,0,0,1.08239X$1,22.5*
%
%ADD10C,0.0600*%
%ADD11C,0.0740*%
%ADD12C,0.0080*%
D10*
X002700Y002500D02*
X003300Y002500D01*
X003300Y003500D02*
X002700Y003500D01*
X002700Y005000D02*
X003300Y005000D01*
X003300Y006000D02*
X002700Y006000D01*
X002700Y007500D02*
X003300Y007500D01*
X003300Y008500D02*
X002700Y008500D01*
X002700Y010000D02*
X003300Y010000D01*
X003300Y011000D02*
X002700Y011000D01*
X006000Y010800D02*
X006000Y010200D01*
X007000Y010200D02*
X007000Y010800D01*
X008500Y010800D02*
X008500Y010200D01*
X009500Y010200D02*
X009500Y010800D01*
X011000Y010800D02*
X011000Y010200D01*
X012000Y010200D02*
X012000Y010800D01*
X013500Y010800D02*
X013500Y010200D01*
X014500Y010200D02*
X014500Y010800D01*
X016000Y010800D02*
X016000Y010200D01*
X017000Y010200D02*
X017000Y010800D01*
X020200Y011000D02*
X020800Y011000D01*
X020800Y010000D02*
X020200Y010000D01*
X020200Y008500D02*
X020800Y008500D01*
X020800Y007500D02*
X020200Y007500D01*
X020200Y006000D02*
X020800Y006000D01*
X020800Y005000D02*
X020200Y005000D01*
X020200Y003500D02*
X020800Y003500D01*
X020800Y002500D02*
X020200Y002500D01*
D11*
X018000Y006500D03*
X017000Y006500D03*
X016000Y006500D03*
X015000Y006500D03*
X014000Y006500D03*
X013000Y006500D03*
X012000Y006500D03*
X011000Y006500D03*
X010000Y006500D03*
X009000Y006500D03*
X008000Y006500D03*
X007000Y006500D03*
X006000Y006500D03*
X006000Y007500D03*
X007000Y007500D03*
X008000Y007500D03*
X009000Y007500D03*
X010000Y007500D03*
X011000Y007500D03*
X012000Y007500D03*
X013000Y007500D03*
X014000Y007500D03*
X015000Y007500D03*
X016000Y007500D03*
X017000Y007500D03*
X018000Y007500D03*
D12*
X002200Y001380D02*
X001480Y002100D01*
X001480Y010660D01*
X002440Y011620D01*
X008360Y011620D01*
X009480Y010500D01*
X009500Y010500D01*
X008520Y010500D02*
X008520Y010020D01*
X011000Y007540D01*
X011000Y007500D01*
X012000Y007500D02*
X011000Y008500D01*
X011000Y010500D01*
X012000Y010500D02*
X012600Y010500D01*
X013880Y011780D01*
X021160Y011780D01*
X022040Y010900D01*
X022040Y001940D01*
X021320Y001220D01*
X017320Y001220D01*
X012040Y006500D01*
X012000Y006500D01*
X011000Y006500D02*
X005880Y001380D01*
X002200Y001380D01*
X002280Y001540D02*
X005000Y001540D01*
X009960Y006500D01*
X010000Y006500D01*
X009000Y006500D02*
X004200Y001700D01*
X002360Y001700D01*
X001800Y002260D01*
X001800Y009780D01*
X003000Y010980D01*
X003000Y011000D01*
X002520Y011460D02*
X001640Y010580D01*
X001640Y002180D01*
X002280Y001540D01*
X002440Y001860D02*
X003560Y001860D01*
X007960Y006260D01*
X007960Y006500D01*
X008000Y006500D01*
X007000Y006500D02*
X007000Y005540D01*
X003480Y002020D01*
X002520Y002020D01*
X002120Y002420D01*
X002120Y005060D01*
X003000Y005940D01*
X003000Y006000D01*
X003000Y005060D02*
X003000Y005000D01*
X003000Y005060D02*
X005480Y007540D01*
X005480Y007700D01*
X005800Y008020D01*
X006520Y008020D01*
X007000Y007540D01*
X007000Y007500D01*
X007320Y008180D02*
X008000Y007500D01*
X008200Y008340D02*
X009000Y007540D01*
X009000Y007500D01*
X010000Y007500D02*
X008040Y009460D01*
X008040Y010420D01*
X007240Y011220D01*
X006760Y011220D01*
X006040Y010500D01*
X006000Y010500D01*
X005400Y009940D02*
X007000Y008340D01*
X008200Y008340D01*
X007320Y008180D02*
X005720Y008180D01*
X005080Y007540D01*
X003000Y007540D01*
X003000Y007500D01*
X003000Y008500D02*
X001960Y007460D01*
X001960Y002340D01*
X002440Y001860D01*
X003000Y002500D02*
X002280Y003220D01*
X002280Y003700D01*
X003160Y004580D01*
X003480Y004580D01*
X005480Y006580D01*
X005480Y006980D01*
X006000Y007500D01*
X005960Y006500D02*
X006000Y006500D01*
X005960Y006500D02*
X003000Y003540D01*
X003000Y003500D01*
X013000Y006500D02*
X018120Y001380D01*
X021240Y001380D01*
X021880Y002020D01*
X021880Y010820D01*
X021080Y011620D01*
X016200Y011620D01*
X015080Y010500D01*
X014500Y010500D01*
X013500Y010500D02*
X013480Y010500D01*
X013480Y008020D01*
X013000Y007540D01*
X013000Y007500D01*
X014000Y007500D02*
X015960Y009460D01*
X015960Y010500D01*
X016000Y010500D01*
X017000Y010500D02*
X017720Y010500D01*
X018680Y011460D01*
X021000Y011460D01*
X021720Y010740D01*
X021720Y002100D01*
X021160Y001540D01*
X019000Y001540D01*
X014040Y006500D01*
X014000Y006500D01*
X015000Y006500D02*
X019800Y001700D01*
X021080Y001700D01*
X021560Y002180D01*
X021560Y008340D01*
X020520Y009380D01*
X020520Y009940D01*
X020500Y010000D01*
X020440Y010980D02*
X020500Y011000D01*
X020440Y010980D02*
X018440Y010980D01*
X015000Y007540D01*
X015000Y007500D01*
X016000Y007500D02*
X017000Y008500D01*
X020500Y008500D01*
X020500Y007500D02*
X020520Y007460D01*
X020520Y006900D01*
X021400Y006020D01*
X021400Y002260D01*
X021000Y001860D01*
X019960Y001860D01*
X016040Y005780D01*
X016040Y006500D01*
X016000Y006500D01*
X017000Y006500D02*
X017000Y005060D01*
X020040Y002020D01*
X020920Y002020D01*
X021240Y002340D01*
X021240Y003700D01*
X020520Y004420D01*
X020520Y004980D01*
X020500Y005000D01*
X020440Y004100D02*
X018520Y006020D01*
X018520Y006980D01*
X018000Y007500D01*
X018200Y008020D02*
X017480Y008020D01*
X017000Y007540D01*
X017000Y007500D01*
X018200Y008020D02*
X020200Y006020D01*
X020440Y006020D01*
X020500Y006000D01*
X018040Y006500D02*
X018040Y005060D01*
X020440Y002660D01*
X020440Y002500D01*
X020500Y002500D01*
X020500Y003500D02*
X020440Y003540D01*
X020440Y004100D01*
X018040Y006500D02*
X018000Y006500D01*
X008520Y010500D02*
X008500Y010500D01*
X007000Y010500D02*
X006280Y009780D01*
X005800Y009780D01*
X004120Y011460D01*
X002520Y011460D01*
X003000Y010000D02*
X003000Y009940D01*
X005400Y009940D01*
M02*
