%
M48
M72
T01C0.0400
%
T01
X3000Y2500
X3000Y3500
X3000Y5000
X3000Y6000
X3000Y7500
X3000Y8500
X3000Y10000
X3000Y11000
X6000Y10500
X7000Y10500
X8500Y10500
X9500Y10500
X11000Y10500
X12000Y10500
X13500Y10500
X14500Y10500
X16000Y10500
X17000Y10500
X20500Y10000
X20500Y11000
X20500Y8500
X20500Y7500
X20500Y6000
X20500Y5000
X20500Y3500
X20500Y2500
X18000Y6500
X17000Y6500
X16000Y6500
X15000Y6500
X14000Y6500
X13000Y6500
X12000Y6500
X11000Y6500
X10000Y6500
X9000Y6500
X8000Y6500
X7000Y6500
X6000Y6500
X6000Y7500
X7000Y7500
X8000Y7500
X9000Y7500
X10000Y7500
X11000Y7500
X12000Y7500
X13000Y7500
X14000Y7500
X15000Y7500
X16000Y7500
X17000Y7500
X18000Y7500
M30
