G75*
%MOIN*%
%OFA0B0*%
%FSLAX24Y24*%
%IPPOS*%
%LPD*%
%AMOC8*
5,1,8,0,0,1.08239X$1,22.5*
%
%ADD10C,0.0000*%
D10*
X000000Y000000D02*
X000000Y013496D01*
X024370Y013496D01*
X024370Y000000D01*
X000000Y000000D01*
X012370Y002500D02*
X012372Y002550D01*
X012378Y002600D01*
X012388Y002649D01*
X012402Y002697D01*
X012419Y002744D01*
X012440Y002789D01*
X012465Y002833D01*
X012493Y002874D01*
X012525Y002913D01*
X012559Y002950D01*
X012596Y002984D01*
X012636Y003014D01*
X012678Y003041D01*
X012722Y003065D01*
X012768Y003086D01*
X012815Y003102D01*
X012863Y003115D01*
X012913Y003124D01*
X012962Y003129D01*
X013013Y003130D01*
X013063Y003127D01*
X013112Y003120D01*
X013161Y003109D01*
X013209Y003094D01*
X013255Y003076D01*
X013300Y003054D01*
X013343Y003028D01*
X013384Y002999D01*
X013423Y002967D01*
X013459Y002932D01*
X013491Y002894D01*
X013521Y002854D01*
X013548Y002811D01*
X013571Y002767D01*
X013590Y002721D01*
X013606Y002673D01*
X013618Y002624D01*
X013626Y002575D01*
X013630Y002525D01*
X013630Y002475D01*
X013626Y002425D01*
X013618Y002376D01*
X013606Y002327D01*
X013590Y002279D01*
X013571Y002233D01*
X013548Y002189D01*
X013521Y002146D01*
X013491Y002106D01*
X013459Y002068D01*
X013423Y002033D01*
X013384Y002001D01*
X013343Y001972D01*
X013300Y001946D01*
X013255Y001924D01*
X013209Y001906D01*
X013161Y001891D01*
X013112Y001880D01*
X013063Y001873D01*
X013013Y001870D01*
X012962Y001871D01*
X012913Y001876D01*
X012863Y001885D01*
X012815Y001898D01*
X012768Y001914D01*
X012722Y001935D01*
X012678Y001959D01*
X012636Y001986D01*
X012596Y002016D01*
X012559Y002050D01*
X012525Y002087D01*
X012493Y002126D01*
X012465Y002167D01*
X012440Y002211D01*
X012419Y002256D01*
X012402Y002303D01*
X012388Y002351D01*
X012378Y002400D01*
X012372Y002450D01*
X012370Y002500D01*
X021370Y012500D02*
X021372Y012550D01*
X021378Y012600D01*
X021388Y012649D01*
X021402Y012697D01*
X021419Y012744D01*
X021440Y012789D01*
X021465Y012833D01*
X021493Y012874D01*
X021525Y012913D01*
X021559Y012950D01*
X021596Y012984D01*
X021636Y013014D01*
X021678Y013041D01*
X021722Y013065D01*
X021768Y013086D01*
X021815Y013102D01*
X021863Y013115D01*
X021913Y013124D01*
X021962Y013129D01*
X022013Y013130D01*
X022063Y013127D01*
X022112Y013120D01*
X022161Y013109D01*
X022209Y013094D01*
X022255Y013076D01*
X022300Y013054D01*
X022343Y013028D01*
X022384Y012999D01*
X022423Y012967D01*
X022459Y012932D01*
X022491Y012894D01*
X022521Y012854D01*
X022548Y012811D01*
X022571Y012767D01*
X022590Y012721D01*
X022606Y012673D01*
X022618Y012624D01*
X022626Y012575D01*
X022630Y012525D01*
X022630Y012475D01*
X022626Y012425D01*
X022618Y012376D01*
X022606Y012327D01*
X022590Y012279D01*
X022571Y012233D01*
X022548Y012189D01*
X022521Y012146D01*
X022491Y012106D01*
X022459Y012068D01*
X022423Y012033D01*
X022384Y012001D01*
X022343Y011972D01*
X022300Y011946D01*
X022255Y011924D01*
X022209Y011906D01*
X022161Y011891D01*
X022112Y011880D01*
X022063Y011873D01*
X022013Y011870D01*
X021962Y011871D01*
X021913Y011876D01*
X021863Y011885D01*
X021815Y011898D01*
X021768Y011914D01*
X021722Y011935D01*
X021678Y011959D01*
X021636Y011986D01*
X021596Y012016D01*
X021559Y012050D01*
X021525Y012087D01*
X021493Y012126D01*
X021465Y012167D01*
X021440Y012211D01*
X021419Y012256D01*
X021402Y012303D01*
X021388Y012351D01*
X021378Y012400D01*
X021372Y012450D01*
X021370Y012500D01*
X001870Y012500D02*
X001872Y012550D01*
X001878Y012600D01*
X001888Y012649D01*
X001902Y012697D01*
X001919Y012744D01*
X001940Y012789D01*
X001965Y012833D01*
X001993Y012874D01*
X002025Y012913D01*
X002059Y012950D01*
X002096Y012984D01*
X002136Y013014D01*
X002178Y013041D01*
X002222Y013065D01*
X002268Y013086D01*
X002315Y013102D01*
X002363Y013115D01*
X002413Y013124D01*
X002462Y013129D01*
X002513Y013130D01*
X002563Y013127D01*
X002612Y013120D01*
X002661Y013109D01*
X002709Y013094D01*
X002755Y013076D01*
X002800Y013054D01*
X002843Y013028D01*
X002884Y012999D01*
X002923Y012967D01*
X002959Y012932D01*
X002991Y012894D01*
X003021Y012854D01*
X003048Y012811D01*
X003071Y012767D01*
X003090Y012721D01*
X003106Y012673D01*
X003118Y012624D01*
X003126Y012575D01*
X003130Y012525D01*
X003130Y012475D01*
X003126Y012425D01*
X003118Y012376D01*
X003106Y012327D01*
X003090Y012279D01*
X003071Y012233D01*
X003048Y012189D01*
X003021Y012146D01*
X002991Y012106D01*
X002959Y012068D01*
X002923Y012033D01*
X002884Y012001D01*
X002843Y011972D01*
X002800Y011946D01*
X002755Y011924D01*
X002709Y011906D01*
X002661Y011891D01*
X002612Y011880D01*
X002563Y011873D01*
X002513Y011870D01*
X002462Y011871D01*
X002413Y011876D01*
X002363Y011885D01*
X002315Y011898D01*
X002268Y011914D01*
X002222Y011935D01*
X002178Y011959D01*
X002136Y011986D01*
X002096Y012016D01*
X002059Y012050D01*
X002025Y012087D01*
X001993Y012126D01*
X001965Y012167D01*
X001940Y012211D01*
X001919Y012256D01*
X001902Y012303D01*
X001888Y012351D01*
X001878Y012400D01*
X001872Y012450D01*
X001870Y012500D01*
M02*
