G75*
%MOIN*%
%OFA0B0*%
%FSLAX24Y24*%
%IPPOS*%
%LPD*%
%AMOC8*
5,1,8,0,0,1.08239X$1,22.5*
%
%ADD10OC8,0.0630*%
%ADD11C,0.0630*%
%ADD12C,0.0520*%
%ADD13OC8,0.0520*%
%ADD14OC8,0.0600*%
%ADD15C,0.1502*%
%ADD16R,0.0600X0.0600*%
%ADD17C,0.0600*%
%ADD18C,0.0320*%
%ADD19C,0.0160*%
D10*
X008700Y002500D03*
X015200Y008000D03*
X015200Y012000D03*
X008700Y017500D03*
D11*
X007300Y017500D03*
X013800Y012000D03*
X013800Y008000D03*
X007300Y002500D03*
D12*
X010740Y007000D02*
X011260Y007000D01*
X011260Y008000D02*
X010740Y008000D01*
X010740Y009000D02*
X011260Y009000D01*
X011260Y011000D02*
X010740Y011000D01*
X010740Y012000D02*
X011260Y012000D01*
X011260Y013000D02*
X010740Y013000D01*
X019240Y016000D02*
X019760Y016000D01*
X023240Y016000D02*
X023760Y016000D01*
D13*
X010000Y014000D03*
X009000Y014000D03*
X009000Y006000D03*
X010000Y006000D03*
D14*
X007000Y006000D03*
X005000Y006000D03*
X007000Y009000D03*
X009000Y009000D03*
X009000Y011000D03*
X007000Y011000D03*
X007000Y014000D03*
X005000Y014000D03*
D15*
X019000Y013500D03*
X020000Y010900D03*
X023500Y010900D03*
X023500Y008400D03*
X023500Y006620D03*
X020000Y006620D03*
X020000Y008400D03*
X024500Y013500D03*
D16*
X028000Y010500D03*
X002000Y011500D03*
D17*
X002000Y010500D03*
X002000Y009500D03*
X002000Y008500D03*
X028000Y009500D03*
D18*
X026900Y008400D01*
X023500Y008400D01*
X023500Y010900D02*
X027600Y010900D01*
X028000Y010500D01*
X024500Y013500D02*
X023500Y014500D01*
X023500Y016000D01*
X023500Y017500D01*
X023000Y018000D01*
X011000Y018000D01*
X010000Y019000D01*
X007500Y019000D01*
X007300Y018800D01*
X007300Y017500D01*
X005500Y017500D01*
X005000Y017000D01*
X005000Y014000D01*
X002500Y014000D01*
X002000Y013500D01*
X002000Y011500D01*
X001500Y011500D01*
X001000Y011000D01*
X001000Y006500D01*
X001500Y006000D01*
X005000Y006000D01*
X005000Y003000D01*
X005500Y002500D01*
X007300Y002500D01*
X008700Y002500D02*
X009500Y002500D01*
X010000Y003000D01*
X010000Y006000D01*
X010500Y006000D01*
X011000Y006500D01*
X011000Y007000D01*
X012500Y007000D01*
X013000Y006500D01*
X017500Y006500D01*
X018000Y007000D01*
X018000Y012500D01*
X019000Y013500D01*
X019000Y015500D01*
X019500Y016000D01*
X013800Y012000D02*
X011000Y012000D01*
X009500Y012000D01*
X009000Y011500D01*
X009000Y011000D01*
X007000Y011000D02*
X006000Y011000D01*
X005500Y010500D01*
X002000Y010500D01*
X002000Y009500D02*
X005500Y009500D01*
X006000Y009000D01*
X007000Y009000D01*
X009000Y009000D02*
X009000Y008500D01*
X009500Y008000D01*
X011000Y008000D01*
X013800Y008000D01*
X009000Y006000D02*
X007000Y006000D01*
X011000Y013000D02*
X011000Y013500D01*
X010500Y014000D01*
X010000Y014000D01*
X010000Y017000D01*
X009500Y017500D01*
X008700Y017500D01*
X009000Y014000D02*
X007000Y014000D01*
D19*
X001890Y000480D02*
X028110Y000480D01*
X028039Y000602D01*
X027969Y000864D01*
X027969Y001136D01*
X028039Y001398D01*
X028175Y001633D01*
X028367Y001825D01*
X028602Y001961D01*
X028864Y002031D01*
X029136Y002031D01*
X029398Y001961D01*
X029520Y001890D01*
X029520Y018110D01*
X029398Y018039D01*
X029136Y017969D01*
X028864Y017969D01*
X028602Y018039D01*
X028367Y018175D01*
X028175Y018367D01*
X028039Y018602D01*
X027969Y018864D01*
X027969Y019136D01*
X028039Y019398D01*
X028109Y019520D01*
X001893Y019516D01*
X001961Y019398D01*
X002031Y019136D01*
X002031Y018864D01*
X001961Y018602D01*
X001825Y018367D01*
X001633Y018175D01*
X001398Y018039D01*
X001136Y017969D01*
X000864Y017969D01*
X000602Y018039D01*
X000480Y018110D01*
X000480Y001890D01*
X000602Y001961D01*
X000864Y002031D01*
X001136Y002031D01*
X001398Y001961D01*
X001633Y001825D01*
X001825Y001633D01*
X001961Y001398D01*
X002031Y001136D01*
X002031Y000864D01*
X001961Y000602D01*
X001890Y000480D01*
X001969Y000634D02*
X028031Y000634D01*
X027988Y000793D02*
X002012Y000793D01*
X002031Y000951D02*
X027969Y000951D01*
X027969Y001110D02*
X002031Y001110D01*
X001996Y001268D02*
X028004Y001268D01*
X028056Y001427D02*
X001944Y001427D01*
X001853Y001585D02*
X028147Y001585D01*
X028285Y001744D02*
X001715Y001744D01*
X001500Y001902D02*
X007084Y001902D01*
X007174Y001865D02*
X006940Y001962D01*
X006882Y002020D01*
X005405Y002020D01*
X005228Y002093D01*
X005093Y002228D01*
X004593Y002728D01*
X004520Y002905D01*
X004520Y005520D01*
X001405Y005520D01*
X001228Y005593D01*
X001093Y005728D01*
X000593Y006228D01*
X000520Y006405D01*
X000520Y011095D01*
X000480Y011095D01*
X000520Y011095D02*
X000593Y011272D01*
X000728Y011407D01*
X001228Y011907D01*
X001405Y011980D01*
X001428Y011980D01*
X001429Y011981D01*
X001519Y012071D01*
X001520Y012072D01*
X001520Y013595D01*
X001593Y013772D01*
X002093Y014272D01*
X002228Y014407D01*
X002405Y014480D01*
X004520Y014480D01*
X004520Y017095D01*
X004593Y017272D01*
X005093Y017772D01*
X005228Y017907D01*
X005405Y017980D01*
X006820Y017980D01*
X006820Y018895D01*
X006893Y019072D01*
X007093Y019272D01*
X007228Y019407D01*
X007405Y019480D01*
X010095Y019480D01*
X010272Y019407D01*
X011199Y018480D01*
X023095Y018480D01*
X023272Y018407D01*
X023772Y017907D01*
X023907Y017772D01*
X023980Y017595D01*
X023980Y016537D01*
X024089Y016492D01*
X024252Y016329D01*
X024340Y016115D01*
X024340Y015885D01*
X024252Y015671D01*
X024089Y015508D01*
X023980Y015463D01*
X023980Y014699D01*
X024161Y014518D01*
X024359Y014571D01*
X024641Y014571D01*
X024913Y014498D01*
X025158Y014357D01*
X025357Y014158D01*
X025498Y013913D01*
X025571Y013641D01*
X025571Y013359D01*
X025498Y013087D01*
X025357Y012842D01*
X025158Y012643D01*
X024913Y012502D01*
X024641Y012429D01*
X024359Y012429D01*
X024087Y012502D01*
X023842Y012643D01*
X023643Y012842D01*
X023502Y013087D01*
X023429Y013359D01*
X023429Y013641D01*
X023482Y013839D01*
X023093Y014228D01*
X023020Y014405D01*
X023020Y015463D01*
X022911Y015508D01*
X022748Y015671D01*
X022660Y015885D01*
X022660Y016115D01*
X022748Y016329D01*
X022911Y016492D01*
X023020Y016537D01*
X023020Y017301D01*
X022801Y017520D01*
X010905Y017520D01*
X010728Y017593D01*
X010593Y017728D01*
X009801Y018520D01*
X007780Y018520D01*
X007780Y017918D01*
X007838Y017860D01*
X007935Y017626D01*
X007935Y017374D01*
X007838Y017140D01*
X007660Y016962D01*
X007426Y016865D01*
X007174Y016865D01*
X006940Y016962D01*
X006882Y017020D01*
X005699Y017020D01*
X005480Y016801D01*
X009520Y016801D01*
X009520Y014340D01*
X009500Y014320D01*
X009240Y014580D01*
X008760Y014580D01*
X008660Y014480D01*
X007397Y014480D01*
X007257Y014620D01*
X006743Y014620D01*
X006380Y014257D01*
X006380Y013743D01*
X006743Y013380D01*
X007257Y013380D01*
X007397Y013520D01*
X008660Y013520D01*
X008760Y013420D01*
X009240Y013420D01*
X009500Y013680D01*
X009760Y013420D01*
X010240Y013420D01*
X010321Y013500D01*
X010370Y013451D01*
X010248Y013329D01*
X010160Y013115D01*
X010160Y012885D01*
X010248Y012671D01*
X010411Y012508D01*
X010431Y012500D01*
X010411Y012492D01*
X010400Y012480D01*
X009405Y012480D01*
X009228Y012407D01*
X009093Y012272D01*
X008593Y011772D01*
X008520Y011595D01*
X008520Y011397D01*
X008380Y011257D01*
X008380Y010743D01*
X008743Y010380D01*
X009257Y010380D01*
X009620Y010743D01*
X009620Y011257D01*
X009528Y011349D01*
X009699Y011520D01*
X010400Y011520D01*
X010411Y011508D01*
X010618Y011423D01*
X010571Y011408D01*
X010509Y011376D01*
X010453Y011336D01*
X010404Y011287D01*
X010364Y011231D01*
X010332Y011169D01*
X010311Y011103D01*
X010300Y011035D01*
X010300Y011000D01*
X011000Y011000D01*
X011700Y011000D01*
X011700Y011035D01*
X011689Y011103D01*
X011668Y011169D01*
X011636Y011231D01*
X011596Y011287D01*
X011547Y011336D01*
X011491Y011376D01*
X011429Y011408D01*
X011382Y011423D01*
X011589Y011508D01*
X011600Y011520D01*
X013382Y011520D01*
X013440Y011462D01*
X013674Y011365D01*
X013926Y011365D01*
X014160Y011462D01*
X014338Y011640D01*
X014435Y011874D01*
X014435Y012126D01*
X014338Y012360D01*
X014160Y012538D01*
X013926Y012635D01*
X013674Y012635D01*
X013440Y012538D01*
X013382Y012480D01*
X011600Y012480D01*
X011589Y012492D01*
X011569Y012500D01*
X011589Y012508D01*
X011752Y012671D01*
X011840Y012885D01*
X011840Y013115D01*
X011752Y013329D01*
X011589Y013492D01*
X011480Y013537D01*
X011480Y013595D01*
X011407Y013772D01*
X011272Y013907D01*
X010772Y014407D01*
X010595Y014480D01*
X010480Y014480D01*
X010480Y017095D01*
X010407Y017272D01*
X010272Y017407D01*
X009772Y017907D01*
X009595Y017980D01*
X009118Y017980D01*
X008963Y018135D01*
X008437Y018135D01*
X008065Y017763D01*
X008065Y017237D01*
X008437Y016865D01*
X008963Y016865D01*
X009118Y017020D01*
X009301Y017020D01*
X009520Y016801D01*
X009520Y016643D02*
X005480Y016643D01*
X005480Y016801D02*
X005480Y014397D01*
X005620Y014257D01*
X005620Y013743D01*
X005257Y013380D01*
X004743Y013380D01*
X004603Y013520D01*
X002699Y013520D01*
X002480Y013301D01*
X002480Y012072D01*
X002481Y012071D01*
X002571Y011981D01*
X002620Y011864D01*
X002620Y011136D01*
X002571Y011019D01*
X002533Y010980D01*
X005301Y010980D01*
X005593Y011272D01*
X005728Y011407D01*
X005905Y011480D01*
X006603Y011480D01*
X006743Y011620D01*
X007257Y011620D01*
X007620Y011257D01*
X007620Y010743D01*
X007257Y010380D01*
X006743Y010380D01*
X006603Y010520D01*
X006199Y010520D01*
X005772Y010093D01*
X005595Y010020D01*
X002397Y010020D01*
X002377Y010000D01*
X002397Y009980D01*
X005595Y009980D01*
X005772Y009907D01*
X006199Y009480D01*
X006603Y009480D01*
X006743Y009620D01*
X007257Y009620D01*
X007620Y009257D01*
X007620Y008743D01*
X007257Y008380D01*
X006743Y008380D01*
X006603Y008520D01*
X005905Y008520D01*
X005728Y008593D01*
X005593Y008728D01*
X005593Y008728D01*
X005301Y009020D01*
X002397Y009020D01*
X002351Y008974D01*
X002227Y008923D01*
X002252Y008911D01*
X002313Y008866D01*
X002366Y008813D01*
X002411Y008752D01*
X002445Y008684D01*
X002468Y008612D01*
X002480Y008538D01*
X002480Y008520D01*
X002020Y008520D01*
X002020Y008480D01*
X002480Y008480D01*
X002480Y008462D01*
X002468Y008388D01*
X002445Y008316D01*
X002411Y008248D01*
X002366Y008187D01*
X002313Y008134D01*
X002252Y008089D01*
X002184Y008055D01*
X002112Y008032D01*
X002038Y008020D01*
X002020Y008020D01*
X002020Y008480D01*
X001980Y008480D01*
X001980Y008020D01*
X001962Y008020D01*
X001888Y008032D01*
X001816Y008055D01*
X001748Y008089D01*
X001687Y008134D01*
X001634Y008187D01*
X001589Y008248D01*
X001555Y008316D01*
X001532Y008388D01*
X001520Y008462D01*
X001520Y008480D01*
X001980Y008480D01*
X001980Y008520D01*
X001520Y008520D01*
X001520Y008538D01*
X001532Y008612D01*
X001555Y008684D01*
X001589Y008752D01*
X001634Y008813D01*
X001687Y008866D01*
X001748Y008911D01*
X001773Y008923D01*
X001649Y008974D01*
X001480Y009143D01*
X001480Y006699D01*
X001699Y006480D01*
X004603Y006480D01*
X004743Y006620D01*
X005257Y006620D01*
X005620Y006257D01*
X005620Y005743D01*
X005480Y005603D01*
X005480Y003199D01*
X005699Y002980D01*
X006882Y002980D01*
X006940Y003038D01*
X007174Y003135D01*
X007426Y003135D01*
X007660Y003038D01*
X007838Y002860D01*
X007935Y002626D01*
X007935Y002374D01*
X007838Y002140D01*
X007660Y001962D01*
X007426Y001865D01*
X007174Y001865D01*
X007516Y001902D02*
X008400Y001902D01*
X008437Y001865D02*
X008963Y001865D01*
X009118Y002020D01*
X009595Y002020D01*
X009772Y002093D01*
X010272Y002593D01*
X010407Y002728D01*
X010480Y002905D01*
X010480Y005520D01*
X010595Y005520D01*
X010772Y005593D01*
X011272Y006093D01*
X011407Y006228D01*
X011480Y006405D01*
X011480Y006463D01*
X011589Y006508D01*
X011600Y006520D01*
X012301Y006520D01*
X012593Y006228D01*
X012728Y006093D01*
X012905Y006020D01*
X017595Y006020D01*
X017772Y006093D01*
X018272Y006593D01*
X018407Y006728D01*
X018480Y006905D01*
X018480Y012301D01*
X018661Y012482D01*
X018859Y012429D01*
X019141Y012429D01*
X019413Y012502D01*
X019658Y012643D01*
X019857Y012842D01*
X019998Y013087D01*
X020071Y013359D01*
X020071Y013641D01*
X019998Y013913D01*
X019857Y014158D01*
X019658Y014357D01*
X019480Y014460D01*
X019480Y015301D01*
X019599Y015420D01*
X019875Y015420D01*
X020089Y015508D01*
X020252Y015671D01*
X020340Y015885D01*
X020340Y016115D01*
X020252Y016329D01*
X020089Y016492D01*
X019875Y016580D01*
X019125Y016580D01*
X018911Y016492D01*
X018748Y016329D01*
X018660Y016115D01*
X018660Y015885D01*
X018673Y015852D01*
X018593Y015772D01*
X018520Y015595D01*
X018520Y014460D01*
X018342Y014357D01*
X018143Y014158D01*
X018002Y013913D01*
X017929Y013641D01*
X017929Y013359D01*
X017982Y013161D01*
X017593Y012772D01*
X017520Y012595D01*
X017520Y007199D01*
X017301Y006980D01*
X013199Y006980D01*
X012772Y007407D01*
X012595Y007480D01*
X011600Y007480D01*
X011589Y007492D01*
X011569Y007500D01*
X011589Y007508D01*
X011600Y007520D01*
X013382Y007520D01*
X013440Y007462D01*
X013674Y007365D01*
X013926Y007365D01*
X014160Y007462D01*
X014338Y007640D01*
X014435Y007874D01*
X014435Y008126D01*
X014338Y008360D01*
X014160Y008538D01*
X013926Y008635D01*
X013674Y008635D01*
X013440Y008538D01*
X013382Y008480D01*
X011600Y008480D01*
X011589Y008492D01*
X011382Y008577D01*
X011429Y008592D01*
X011491Y008624D01*
X011547Y008664D01*
X011596Y008713D01*
X011636Y008769D01*
X011668Y008831D01*
X011689Y008897D01*
X011700Y008965D01*
X011700Y009000D01*
X011700Y009035D01*
X011689Y009103D01*
X011668Y009169D01*
X011636Y009231D01*
X011596Y009287D01*
X011547Y009336D01*
X011491Y009376D01*
X011429Y009408D01*
X011363Y009429D01*
X011295Y009440D01*
X011000Y009440D01*
X011000Y009000D01*
X011000Y009000D01*
X011700Y009000D01*
X011000Y009000D01*
X011000Y009000D01*
X011000Y009000D01*
X010300Y009000D01*
X010300Y009035D01*
X010311Y009103D01*
X010332Y009169D01*
X010364Y009231D01*
X010404Y009287D01*
X010453Y009336D01*
X010509Y009376D01*
X010571Y009408D01*
X010637Y009429D01*
X010705Y009440D01*
X011000Y009440D01*
X011000Y009000D01*
X010300Y009000D01*
X010300Y008965D01*
X010311Y008897D01*
X010332Y008831D01*
X010364Y008769D01*
X010404Y008713D01*
X010453Y008664D01*
X010509Y008624D01*
X010571Y008592D01*
X010618Y008577D01*
X010411Y008492D01*
X010400Y008480D01*
X009699Y008480D01*
X009528Y008651D01*
X009620Y008743D01*
X009620Y009257D01*
X009257Y009620D01*
X008743Y009620D01*
X008380Y009257D01*
X008380Y008743D01*
X008520Y008603D01*
X008520Y008405D01*
X008593Y008228D01*
X009093Y007728D01*
X009228Y007593D01*
X009405Y007520D01*
X010400Y007520D01*
X010411Y007508D01*
X010431Y007500D01*
X010411Y007492D01*
X010248Y007329D01*
X010160Y007115D01*
X010160Y006885D01*
X010248Y006671D01*
X010370Y006549D01*
X010321Y006500D01*
X010240Y006580D01*
X009760Y006580D01*
X009500Y006320D01*
X009240Y006580D01*
X008760Y006580D01*
X008660Y006480D01*
X007397Y006480D01*
X007257Y006620D01*
X006743Y006620D01*
X006380Y006257D01*
X006380Y005743D01*
X006743Y005380D01*
X007257Y005380D01*
X007397Y005520D01*
X008660Y005520D01*
X008760Y005420D01*
X009240Y005420D01*
X009500Y005680D01*
X009520Y005660D01*
X009520Y003199D01*
X009301Y002980D01*
X009118Y002980D01*
X008963Y003135D01*
X008437Y003135D01*
X008065Y002763D01*
X008065Y002237D01*
X008437Y001865D01*
X008241Y002061D02*
X007759Y002061D01*
X007871Y002219D02*
X008083Y002219D01*
X008065Y002378D02*
X007935Y002378D01*
X007935Y002536D02*
X008065Y002536D01*
X008065Y002695D02*
X007907Y002695D01*
X007841Y002853D02*
X008155Y002853D01*
X008313Y003012D02*
X007687Y003012D01*
X006913Y003012D02*
X005667Y003012D01*
X005509Y003170D02*
X009491Y003170D01*
X009520Y003329D02*
X005480Y003329D01*
X005480Y003487D02*
X009520Y003487D01*
X009520Y003646D02*
X005480Y003646D01*
X005480Y003804D02*
X009520Y003804D01*
X009520Y003963D02*
X005480Y003963D01*
X005480Y004121D02*
X009520Y004121D01*
X009520Y004280D02*
X005480Y004280D01*
X005480Y004438D02*
X009520Y004438D01*
X009520Y004597D02*
X005480Y004597D01*
X005480Y004755D02*
X009520Y004755D01*
X009520Y004914D02*
X005480Y004914D01*
X005480Y005072D02*
X009520Y005072D01*
X009520Y005231D02*
X005480Y005231D01*
X005480Y005389D02*
X006734Y005389D01*
X006576Y005548D02*
X005480Y005548D01*
X005583Y005706D02*
X006417Y005706D01*
X006380Y005865D02*
X005620Y005865D01*
X005620Y006023D02*
X006380Y006023D01*
X006380Y006182D02*
X005620Y006182D01*
X005537Y006340D02*
X006463Y006340D01*
X006622Y006499D02*
X005378Y006499D01*
X004622Y006499D02*
X001680Y006499D01*
X001522Y006657D02*
X010263Y006657D01*
X010189Y006816D02*
X001480Y006816D01*
X001480Y006974D02*
X010160Y006974D01*
X010167Y007133D02*
X001480Y007133D01*
X001480Y007291D02*
X010233Y007291D01*
X010369Y007450D02*
X001480Y007450D01*
X001480Y007608D02*
X009213Y007608D01*
X009055Y007767D02*
X001480Y007767D01*
X001480Y007925D02*
X008896Y007925D01*
X008738Y008084D02*
X002240Y008084D01*
X002020Y008084D02*
X001980Y008084D01*
X001980Y008242D02*
X002020Y008242D01*
X002020Y008401D02*
X001980Y008401D01*
X002406Y008242D02*
X008587Y008242D01*
X008522Y008401D02*
X007277Y008401D01*
X007436Y008559D02*
X008520Y008559D01*
X008406Y008718D02*
X007594Y008718D01*
X007620Y008876D02*
X008380Y008876D01*
X008380Y009035D02*
X007620Y009035D01*
X007620Y009193D02*
X008380Y009193D01*
X008475Y009352D02*
X007525Y009352D01*
X007367Y009510D02*
X008633Y009510D01*
X009367Y009510D02*
X017520Y009510D01*
X017520Y009352D02*
X011525Y009352D01*
X011655Y009193D02*
X017520Y009193D01*
X017520Y009035D02*
X011700Y009035D01*
X011682Y008876D02*
X017520Y008876D01*
X017520Y008718D02*
X011599Y008718D01*
X011426Y008559D02*
X013490Y008559D01*
X014110Y008559D02*
X017520Y008559D01*
X017520Y008401D02*
X015500Y008401D01*
X015405Y008495D02*
X015200Y008495D01*
X015200Y008000D01*
X015695Y008000D01*
X015695Y008205D01*
X015405Y008495D01*
X015200Y008495D02*
X014995Y008495D01*
X014705Y008205D01*
X014705Y008000D01*
X015200Y008000D01*
X015200Y008000D01*
X015200Y008000D01*
X015695Y008000D01*
X015695Y007795D01*
X015405Y007505D01*
X015200Y007505D01*
X015200Y008000D01*
X015200Y008000D01*
X015200Y008000D01*
X015200Y008495D01*
X015200Y008401D02*
X015200Y008401D01*
X015200Y008242D02*
X015200Y008242D01*
X015200Y008084D02*
X015200Y008084D01*
X015200Y008000D02*
X014705Y008000D01*
X014705Y007795D01*
X014995Y007505D01*
X015200Y007505D01*
X015200Y008000D01*
X015200Y007925D02*
X015200Y007925D01*
X015200Y007767D02*
X015200Y007767D01*
X015200Y007608D02*
X015200Y007608D01*
X015508Y007608D02*
X017520Y007608D01*
X017520Y007450D02*
X014130Y007450D01*
X014306Y007608D02*
X014892Y007608D01*
X014733Y007767D02*
X014391Y007767D01*
X014435Y007925D02*
X014705Y007925D01*
X014705Y008084D02*
X014435Y008084D01*
X014387Y008242D02*
X014742Y008242D01*
X014900Y008401D02*
X014298Y008401D01*
X013470Y007450D02*
X012669Y007450D01*
X012888Y007291D02*
X017520Y007291D01*
X017454Y007133D02*
X013046Y007133D01*
X012323Y006499D02*
X011565Y006499D01*
X011453Y006340D02*
X012481Y006340D01*
X012640Y006182D02*
X011360Y006182D01*
X011202Y006023D02*
X012897Y006023D01*
X011043Y005865D02*
X019241Y005865D01*
X019143Y005962D02*
X019342Y005763D01*
X019587Y005622D01*
X019859Y005549D01*
X020141Y005549D01*
X020413Y005622D01*
X020658Y005763D01*
X020857Y005962D01*
X020998Y006207D01*
X021071Y006479D01*
X021071Y006761D01*
X020998Y007033D01*
X020857Y007278D01*
X020658Y007477D01*
X020601Y007510D01*
X020658Y007543D01*
X020857Y007742D01*
X020998Y007987D01*
X021071Y008259D01*
X021071Y008541D01*
X020998Y008813D01*
X020857Y009058D01*
X020658Y009257D01*
X020413Y009398D01*
X020141Y009471D01*
X019859Y009471D01*
X019587Y009398D01*
X019342Y009257D01*
X019143Y009058D01*
X019002Y008813D01*
X018929Y008541D01*
X018929Y008259D01*
X019002Y007987D01*
X019143Y007742D01*
X019342Y007543D01*
X019399Y007510D01*
X019342Y007477D01*
X019143Y007278D01*
X019002Y007033D01*
X018929Y006761D01*
X018929Y006479D01*
X019002Y006207D01*
X019143Y005962D01*
X019108Y006023D02*
X017603Y006023D01*
X017860Y006182D02*
X019016Y006182D01*
X018966Y006340D02*
X018019Y006340D01*
X018177Y006499D02*
X018929Y006499D01*
X018929Y006657D02*
X018336Y006657D01*
X018443Y006816D02*
X018943Y006816D01*
X018986Y006974D02*
X018480Y006974D01*
X018480Y007133D02*
X019059Y007133D01*
X019156Y007291D02*
X018480Y007291D01*
X018480Y007450D02*
X019315Y007450D01*
X019277Y007608D02*
X018480Y007608D01*
X018480Y007767D02*
X019129Y007767D01*
X019037Y007925D02*
X018480Y007925D01*
X018480Y008084D02*
X018976Y008084D01*
X018933Y008242D02*
X018480Y008242D01*
X018480Y008401D02*
X018929Y008401D01*
X018934Y008559D02*
X018480Y008559D01*
X018480Y008718D02*
X018976Y008718D01*
X019038Y008876D02*
X018480Y008876D01*
X018480Y009035D02*
X019129Y009035D01*
X019278Y009193D02*
X018480Y009193D01*
X018480Y009352D02*
X019506Y009352D01*
X019587Y009902D02*
X019859Y009829D01*
X020141Y009829D01*
X020413Y009902D01*
X020658Y010043D01*
X020857Y010242D01*
X020998Y010487D01*
X021071Y010759D01*
X021071Y011041D01*
X020998Y011313D01*
X020857Y011558D01*
X020658Y011757D01*
X020413Y011898D01*
X020141Y011971D01*
X019859Y011971D01*
X019587Y011898D01*
X019342Y011757D01*
X019143Y011558D01*
X019002Y011313D01*
X018929Y011041D01*
X018929Y010759D01*
X019002Y010487D01*
X019143Y010242D01*
X019342Y010043D01*
X019587Y009902D01*
X019442Y009986D02*
X018480Y009986D01*
X018480Y010144D02*
X019241Y010144D01*
X019108Y010303D02*
X018480Y010303D01*
X018480Y010461D02*
X019017Y010461D01*
X018966Y010620D02*
X018480Y010620D01*
X018480Y010778D02*
X018929Y010778D01*
X018929Y010937D02*
X018480Y010937D01*
X018480Y011095D02*
X018943Y011095D01*
X018986Y011254D02*
X018480Y011254D01*
X018480Y011412D02*
X019059Y011412D01*
X019156Y011571D02*
X018480Y011571D01*
X018480Y011729D02*
X019314Y011729D01*
X019568Y011888D02*
X018480Y011888D01*
X018480Y012046D02*
X029520Y012046D01*
X029520Y011888D02*
X023932Y011888D01*
X023913Y011898D02*
X023641Y011971D01*
X023359Y011971D01*
X023087Y011898D01*
X022842Y011757D01*
X022643Y011558D01*
X022502Y011313D01*
X022429Y011041D01*
X022429Y010759D01*
X022502Y010487D01*
X022643Y010242D01*
X022842Y010043D01*
X023087Y009902D01*
X023359Y009829D01*
X023641Y009829D01*
X023913Y009902D01*
X024158Y010043D01*
X024357Y010242D01*
X024460Y010420D01*
X027380Y010420D01*
X027380Y010136D01*
X027429Y010019D01*
X027519Y009929D01*
X027542Y009919D01*
X027474Y009851D01*
X027380Y009623D01*
X027380Y009559D01*
X026701Y008880D01*
X024460Y008880D01*
X024357Y009058D01*
X024158Y009257D01*
X023913Y009398D01*
X023641Y009471D01*
X023359Y009471D01*
X023087Y009398D01*
X022842Y009257D01*
X022643Y009058D01*
X022502Y008813D01*
X022429Y008541D01*
X022429Y008259D01*
X022502Y007987D01*
X022643Y007742D01*
X022842Y007543D01*
X022899Y007510D01*
X022842Y007477D01*
X022643Y007278D01*
X022502Y007033D01*
X022429Y006761D01*
X022429Y006479D01*
X022502Y006207D01*
X022643Y005962D01*
X022842Y005763D01*
X023087Y005622D01*
X023359Y005549D01*
X023641Y005549D01*
X023913Y005622D01*
X024158Y005763D01*
X024357Y005962D01*
X024498Y006207D01*
X024571Y006479D01*
X024571Y006761D01*
X024498Y007033D01*
X024357Y007278D01*
X024158Y007477D01*
X024101Y007510D01*
X024158Y007543D01*
X024357Y007742D01*
X024460Y007920D01*
X026995Y007920D01*
X027172Y007993D01*
X028059Y008880D01*
X028123Y008880D01*
X028351Y008974D01*
X028526Y009149D01*
X028620Y009377D01*
X028620Y009623D01*
X028526Y009851D01*
X028458Y009919D01*
X028481Y009929D01*
X028571Y010019D01*
X028620Y010136D01*
X028620Y010864D01*
X028571Y010981D01*
X028481Y011071D01*
X028364Y011120D01*
X028059Y011120D01*
X027872Y011307D01*
X027695Y011380D01*
X024460Y011380D01*
X024357Y011558D01*
X024158Y011757D01*
X023913Y011898D01*
X024186Y011729D02*
X029520Y011729D01*
X029520Y011571D02*
X024344Y011571D01*
X024441Y011412D02*
X029520Y011412D01*
X029520Y011254D02*
X027925Y011254D01*
X028424Y011095D02*
X029520Y011095D01*
X029520Y010937D02*
X028590Y010937D01*
X028620Y010778D02*
X029520Y010778D01*
X029520Y010620D02*
X028620Y010620D01*
X028620Y010461D02*
X029520Y010461D01*
X029520Y010303D02*
X028620Y010303D01*
X028620Y010144D02*
X029520Y010144D01*
X029520Y009986D02*
X028538Y009986D01*
X028536Y009827D02*
X029520Y009827D01*
X029520Y009669D02*
X028601Y009669D01*
X028620Y009510D02*
X029520Y009510D01*
X029520Y009352D02*
X028610Y009352D01*
X028544Y009193D02*
X029520Y009193D01*
X029520Y009035D02*
X028411Y009035D01*
X028055Y008876D02*
X029520Y008876D01*
X029520Y008718D02*
X027896Y008718D01*
X027738Y008559D02*
X029520Y008559D01*
X029520Y008401D02*
X027579Y008401D01*
X027421Y008242D02*
X029520Y008242D01*
X029520Y008084D02*
X027262Y008084D01*
X027008Y007925D02*
X029520Y007925D01*
X029520Y007767D02*
X024371Y007767D01*
X024223Y007608D02*
X029520Y007608D01*
X029520Y007450D02*
X024185Y007450D01*
X024344Y007291D02*
X029520Y007291D01*
X029520Y007133D02*
X024441Y007133D01*
X024514Y006974D02*
X029520Y006974D01*
X029520Y006816D02*
X024557Y006816D01*
X024571Y006657D02*
X029520Y006657D01*
X029520Y006499D02*
X024571Y006499D01*
X024534Y006340D02*
X029520Y006340D01*
X029520Y006182D02*
X024484Y006182D01*
X024392Y006023D02*
X029520Y006023D01*
X029520Y005865D02*
X024259Y005865D01*
X024059Y005706D02*
X029520Y005706D01*
X029520Y005548D02*
X010662Y005548D01*
X010480Y005389D02*
X029520Y005389D01*
X029520Y005231D02*
X010480Y005231D01*
X010480Y005072D02*
X029520Y005072D01*
X029520Y004914D02*
X010480Y004914D01*
X010480Y004755D02*
X029520Y004755D01*
X029520Y004597D02*
X010480Y004597D01*
X010480Y004438D02*
X029520Y004438D01*
X029520Y004280D02*
X010480Y004280D01*
X010480Y004121D02*
X029520Y004121D01*
X029520Y003963D02*
X010480Y003963D01*
X010480Y003804D02*
X029520Y003804D01*
X029520Y003646D02*
X010480Y003646D01*
X010480Y003487D02*
X029520Y003487D01*
X029520Y003329D02*
X010480Y003329D01*
X010480Y003170D02*
X029520Y003170D01*
X029520Y003012D02*
X010480Y003012D01*
X010459Y002853D02*
X029520Y002853D01*
X029520Y002695D02*
X010373Y002695D01*
X010215Y002536D02*
X029520Y002536D01*
X029520Y002378D02*
X010056Y002378D01*
X009898Y002219D02*
X029520Y002219D01*
X029520Y002061D02*
X009693Y002061D01*
X009000Y001902D02*
X028500Y001902D01*
X029500Y001902D02*
X029520Y001902D01*
X022941Y005706D02*
X020559Y005706D01*
X020759Y005865D02*
X022741Y005865D01*
X022608Y006023D02*
X020892Y006023D01*
X020984Y006182D02*
X022516Y006182D01*
X022466Y006340D02*
X021034Y006340D01*
X021071Y006499D02*
X022429Y006499D01*
X022429Y006657D02*
X021071Y006657D01*
X021057Y006816D02*
X022443Y006816D01*
X022486Y006974D02*
X021014Y006974D01*
X020941Y007133D02*
X022559Y007133D01*
X022656Y007291D02*
X020844Y007291D01*
X020685Y007450D02*
X022815Y007450D01*
X022777Y007608D02*
X020723Y007608D01*
X020871Y007767D02*
X022629Y007767D01*
X022537Y007925D02*
X020963Y007925D01*
X021024Y008084D02*
X022476Y008084D01*
X022433Y008242D02*
X021067Y008242D01*
X021071Y008401D02*
X022429Y008401D01*
X022434Y008559D02*
X021066Y008559D01*
X021024Y008718D02*
X022476Y008718D01*
X022538Y008876D02*
X020962Y008876D01*
X020871Y009035D02*
X022629Y009035D01*
X022778Y009193D02*
X020722Y009193D01*
X020494Y009352D02*
X023006Y009352D01*
X022942Y009986D02*
X020558Y009986D01*
X020759Y010144D02*
X022741Y010144D01*
X022608Y010303D02*
X020892Y010303D01*
X020983Y010461D02*
X022517Y010461D01*
X022466Y010620D02*
X021034Y010620D01*
X021071Y010778D02*
X022429Y010778D01*
X022429Y010937D02*
X021071Y010937D01*
X021057Y011095D02*
X022443Y011095D01*
X022486Y011254D02*
X021014Y011254D01*
X020941Y011412D02*
X022559Y011412D01*
X022656Y011571D02*
X020844Y011571D01*
X020686Y011729D02*
X022814Y011729D01*
X023068Y011888D02*
X020432Y011888D01*
X019448Y012522D02*
X024052Y012522D01*
X023805Y012680D02*
X019695Y012680D01*
X019853Y012839D02*
X023647Y012839D01*
X023554Y012997D02*
X019946Y012997D01*
X020017Y013156D02*
X023483Y013156D01*
X023441Y013314D02*
X020059Y013314D01*
X020071Y013473D02*
X023429Y013473D01*
X023429Y013631D02*
X020071Y013631D01*
X020031Y013790D02*
X023469Y013790D01*
X023373Y013948D02*
X019978Y013948D01*
X019887Y014107D02*
X023215Y014107D01*
X023078Y014265D02*
X019750Y014265D01*
X019543Y014424D02*
X023020Y014424D01*
X023020Y014582D02*
X019480Y014582D01*
X019480Y014741D02*
X023020Y014741D01*
X023020Y014899D02*
X019480Y014899D01*
X019480Y015058D02*
X023020Y015058D01*
X023020Y015216D02*
X019480Y015216D01*
X019553Y015375D02*
X023020Y015375D01*
X022887Y015533D02*
X020113Y015533D01*
X020260Y015692D02*
X022740Y015692D01*
X022674Y015850D02*
X020326Y015850D01*
X020340Y016009D02*
X022660Y016009D01*
X022681Y016167D02*
X020319Y016167D01*
X020253Y016326D02*
X022747Y016326D01*
X022904Y016484D02*
X020096Y016484D01*
X018904Y016484D02*
X010480Y016484D01*
X010480Y016326D02*
X018747Y016326D01*
X018681Y016167D02*
X010480Y016167D01*
X010480Y016009D02*
X018660Y016009D01*
X018671Y015850D02*
X010480Y015850D01*
X010480Y015692D02*
X018560Y015692D01*
X018520Y015533D02*
X010480Y015533D01*
X010480Y015375D02*
X018520Y015375D01*
X018520Y015216D02*
X010480Y015216D01*
X010480Y015058D02*
X018520Y015058D01*
X018520Y014899D02*
X010480Y014899D01*
X010480Y014741D02*
X018520Y014741D01*
X018520Y014582D02*
X010480Y014582D01*
X010732Y014424D02*
X018457Y014424D01*
X018250Y014265D02*
X010914Y014265D01*
X011072Y014107D02*
X018113Y014107D01*
X018022Y013948D02*
X011231Y013948D01*
X011389Y013790D02*
X017969Y013790D01*
X017929Y013631D02*
X011465Y013631D01*
X011608Y013473D02*
X017929Y013473D01*
X017941Y013314D02*
X011758Y013314D01*
X011823Y013156D02*
X017977Y013156D01*
X017818Y012997D02*
X011840Y012997D01*
X011821Y012839D02*
X017660Y012839D01*
X017555Y012680D02*
X011755Y012680D01*
X011602Y012522D02*
X013423Y012522D01*
X014177Y012522D02*
X017520Y012522D01*
X017520Y012363D02*
X015537Y012363D01*
X015405Y012495D02*
X015200Y012495D01*
X015200Y012000D01*
X015695Y012000D01*
X015695Y012205D01*
X015405Y012495D01*
X015200Y012495D02*
X014995Y012495D01*
X014705Y012205D01*
X014705Y012000D01*
X015200Y012000D01*
X015200Y012000D01*
X015200Y012000D01*
X015695Y012000D01*
X015695Y011795D01*
X015405Y011505D01*
X015200Y011505D01*
X015200Y012000D01*
X015200Y012000D01*
X015200Y012000D01*
X015200Y012495D01*
X015200Y012363D02*
X015200Y012363D01*
X015200Y012205D02*
X015200Y012205D01*
X015200Y012046D02*
X015200Y012046D01*
X015200Y012000D02*
X014705Y012000D01*
X014705Y011795D01*
X014995Y011505D01*
X015200Y011505D01*
X015200Y012000D01*
X015200Y011888D02*
X015200Y011888D01*
X015200Y011729D02*
X015200Y011729D01*
X015200Y011571D02*
X015200Y011571D01*
X015471Y011571D02*
X017520Y011571D01*
X017520Y011729D02*
X015629Y011729D01*
X015695Y011888D02*
X017520Y011888D01*
X017520Y012046D02*
X015695Y012046D01*
X015695Y012205D02*
X017520Y012205D01*
X018480Y012205D02*
X029520Y012205D01*
X029520Y012363D02*
X018542Y012363D01*
X017520Y011412D02*
X014040Y011412D01*
X014269Y011571D02*
X014929Y011571D01*
X014771Y011729D02*
X014375Y011729D01*
X014435Y011888D02*
X014705Y011888D01*
X014705Y012046D02*
X014435Y012046D01*
X014403Y012205D02*
X014705Y012205D01*
X014863Y012363D02*
X014335Y012363D01*
X013560Y011412D02*
X011416Y011412D01*
X011620Y011254D02*
X017520Y011254D01*
X017520Y011095D02*
X011690Y011095D01*
X011700Y011000D02*
X011000Y011000D01*
X011000Y011000D01*
X011000Y010560D01*
X011295Y010560D01*
X011363Y010571D01*
X011429Y010592D01*
X011491Y010624D01*
X011547Y010664D01*
X011596Y010713D01*
X011636Y010769D01*
X011668Y010831D01*
X011689Y010897D01*
X011700Y010965D01*
X011700Y011000D01*
X011695Y010937D02*
X017520Y010937D01*
X017520Y010778D02*
X011641Y010778D01*
X011482Y010620D02*
X017520Y010620D01*
X017520Y010461D02*
X009338Y010461D01*
X009496Y010620D02*
X010518Y010620D01*
X010509Y010624D02*
X010571Y010592D01*
X010637Y010571D01*
X010705Y010560D01*
X011000Y010560D01*
X011000Y011000D01*
X011000Y011000D01*
X011000Y011000D01*
X010300Y011000D01*
X010300Y010965D01*
X010311Y010897D01*
X010332Y010831D01*
X010364Y010769D01*
X010404Y010713D01*
X010453Y010664D01*
X010509Y010624D01*
X010359Y010778D02*
X009620Y010778D01*
X009620Y010937D02*
X010305Y010937D01*
X010310Y011095D02*
X009620Y011095D01*
X009620Y011254D02*
X010380Y011254D01*
X010584Y011412D02*
X009591Y011412D01*
X008709Y011888D02*
X002610Y011888D01*
X002620Y011729D02*
X008575Y011729D01*
X008520Y011571D02*
X007306Y011571D01*
X007465Y011412D02*
X008520Y011412D01*
X008380Y011254D02*
X007620Y011254D01*
X007620Y011095D02*
X008380Y011095D01*
X008380Y010937D02*
X007620Y010937D01*
X007620Y010778D02*
X008380Y010778D01*
X008504Y010620D02*
X007496Y010620D01*
X007338Y010461D02*
X008662Y010461D01*
X009525Y009352D02*
X010475Y009352D01*
X010345Y009193D02*
X009620Y009193D01*
X009620Y009035D02*
X010300Y009035D01*
X010318Y008876D02*
X009620Y008876D01*
X009594Y008718D02*
X010401Y008718D01*
X010574Y008559D02*
X009620Y008559D01*
X011000Y009035D02*
X011000Y009035D01*
X011000Y009193D02*
X011000Y009193D01*
X011000Y009352D02*
X011000Y009352D01*
X011000Y010620D02*
X011000Y010620D01*
X011000Y010778D02*
X011000Y010778D01*
X011000Y010937D02*
X011000Y010937D01*
X009026Y012205D02*
X002480Y012205D01*
X002480Y012363D02*
X009184Y012363D01*
X008867Y012046D02*
X002507Y012046D01*
X002480Y012522D02*
X010398Y012522D01*
X010245Y012680D02*
X002480Y012680D01*
X002480Y012839D02*
X010179Y012839D01*
X010160Y012997D02*
X002480Y012997D01*
X002480Y013156D02*
X010177Y013156D01*
X010242Y013314D02*
X002493Y013314D01*
X002651Y013473D02*
X004651Y013473D01*
X005349Y013473D02*
X006651Y013473D01*
X006492Y013631D02*
X005508Y013631D01*
X005620Y013790D02*
X006380Y013790D01*
X006380Y013948D02*
X005620Y013948D01*
X005620Y014107D02*
X006380Y014107D01*
X006388Y014265D02*
X005612Y014265D01*
X005480Y014424D02*
X006547Y014424D01*
X006705Y014582D02*
X005480Y014582D01*
X005480Y014741D02*
X009520Y014741D01*
X009520Y014899D02*
X005480Y014899D01*
X005480Y015058D02*
X009520Y015058D01*
X009520Y015216D02*
X005480Y015216D01*
X005480Y015375D02*
X009520Y015375D01*
X009520Y015533D02*
X005480Y015533D01*
X005480Y015692D02*
X009520Y015692D01*
X009520Y015850D02*
X005480Y015850D01*
X005480Y016009D02*
X009520Y016009D01*
X009520Y016167D02*
X005480Y016167D01*
X005480Y016326D02*
X009520Y016326D01*
X009520Y016484D02*
X005480Y016484D01*
X005638Y016960D02*
X006945Y016960D01*
X007655Y016960D02*
X008342Y016960D01*
X008184Y017118D02*
X007816Y017118D01*
X007895Y017277D02*
X008065Y017277D01*
X008065Y017435D02*
X007935Y017435D01*
X007935Y017594D02*
X008065Y017594D01*
X008065Y017752D02*
X007883Y017752D01*
X007787Y017911D02*
X008213Y017911D01*
X008371Y018069D02*
X007780Y018069D01*
X007780Y018228D02*
X010094Y018228D01*
X009935Y018386D02*
X007780Y018386D01*
X006820Y018386D02*
X001836Y018386D01*
X001928Y018545D02*
X006820Y018545D01*
X006820Y018703D02*
X001988Y018703D01*
X002030Y018862D02*
X006820Y018862D01*
X006872Y019020D02*
X002031Y019020D01*
X002020Y019179D02*
X007000Y019179D01*
X007158Y019337D02*
X001977Y019337D01*
X001905Y019496D02*
X028095Y019496D01*
X028023Y019337D02*
X010342Y019337D01*
X010500Y019179D02*
X027980Y019179D01*
X027969Y019020D02*
X010659Y019020D01*
X010817Y018862D02*
X027970Y018862D01*
X028012Y018703D02*
X010976Y018703D01*
X011134Y018545D02*
X028072Y018545D01*
X028164Y018386D02*
X023293Y018386D01*
X023451Y018228D02*
X028314Y018228D01*
X028550Y018069D02*
X023610Y018069D01*
X023768Y017911D02*
X029520Y017911D01*
X029520Y018069D02*
X029450Y018069D01*
X029520Y017752D02*
X023915Y017752D01*
X023980Y017594D02*
X029520Y017594D01*
X029520Y017435D02*
X023980Y017435D01*
X023980Y017277D02*
X029520Y017277D01*
X029520Y017118D02*
X023980Y017118D01*
X023980Y016960D02*
X029520Y016960D01*
X029520Y016801D02*
X023980Y016801D01*
X023980Y016643D02*
X029520Y016643D01*
X029520Y016484D02*
X024096Y016484D01*
X024253Y016326D02*
X029520Y016326D01*
X029520Y016167D02*
X024319Y016167D01*
X024340Y016009D02*
X029520Y016009D01*
X029520Y015850D02*
X024326Y015850D01*
X024260Y015692D02*
X029520Y015692D01*
X029520Y015533D02*
X024113Y015533D01*
X023980Y015375D02*
X029520Y015375D01*
X029520Y015216D02*
X023980Y015216D01*
X023980Y015058D02*
X029520Y015058D01*
X029520Y014899D02*
X023980Y014899D01*
X023980Y014741D02*
X029520Y014741D01*
X029520Y014582D02*
X024097Y014582D01*
X025043Y014424D02*
X029520Y014424D01*
X029520Y014265D02*
X025250Y014265D01*
X025387Y014107D02*
X029520Y014107D01*
X029520Y013948D02*
X025478Y013948D01*
X025531Y013790D02*
X029520Y013790D01*
X029520Y013631D02*
X025571Y013631D01*
X025571Y013473D02*
X029520Y013473D01*
X029520Y013314D02*
X025559Y013314D01*
X025517Y013156D02*
X029520Y013156D01*
X029520Y012997D02*
X025446Y012997D01*
X025353Y012839D02*
X029520Y012839D01*
X029520Y012680D02*
X025195Y012680D01*
X024948Y012522D02*
X029520Y012522D01*
X027380Y010303D02*
X024392Y010303D01*
X024259Y010144D02*
X027380Y010144D01*
X027462Y009986D02*
X024058Y009986D01*
X023994Y009352D02*
X027173Y009352D01*
X027331Y009510D02*
X018480Y009510D01*
X018480Y009669D02*
X027399Y009669D01*
X027464Y009827D02*
X018480Y009827D01*
X017520Y009827D02*
X005852Y009827D01*
X006010Y009669D02*
X017520Y009669D01*
X017520Y009986D02*
X002391Y009986D01*
X001589Y009035D02*
X001480Y009035D01*
X001480Y008876D02*
X001701Y008876D01*
X001572Y008718D02*
X001480Y008718D01*
X001480Y008559D02*
X001523Y008559D01*
X001530Y008401D02*
X001480Y008401D01*
X001480Y008242D02*
X001594Y008242D01*
X001480Y008084D02*
X001760Y008084D01*
X002470Y008401D02*
X006723Y008401D01*
X005810Y008559D02*
X002477Y008559D01*
X002428Y008718D02*
X005604Y008718D01*
X005445Y008876D02*
X002299Y008876D01*
X000520Y008876D02*
X000480Y008876D01*
X000480Y008718D02*
X000520Y008718D01*
X000520Y008559D02*
X000480Y008559D01*
X000480Y008401D02*
X000520Y008401D01*
X000520Y008242D02*
X000480Y008242D01*
X000480Y008084D02*
X000520Y008084D01*
X000520Y007925D02*
X000480Y007925D01*
X000480Y007767D02*
X000520Y007767D01*
X000520Y007608D02*
X000480Y007608D01*
X000480Y007450D02*
X000520Y007450D01*
X000520Y007291D02*
X000480Y007291D01*
X000480Y007133D02*
X000520Y007133D01*
X000520Y006974D02*
X000480Y006974D01*
X000480Y006816D02*
X000520Y006816D01*
X000520Y006657D02*
X000480Y006657D01*
X000480Y006499D02*
X000520Y006499D01*
X000547Y006340D02*
X000480Y006340D01*
X000480Y006182D02*
X000640Y006182D01*
X000798Y006023D02*
X000480Y006023D01*
X000480Y005865D02*
X000957Y005865D01*
X001115Y005706D02*
X000480Y005706D01*
X000480Y005548D02*
X001338Y005548D01*
X000480Y005389D02*
X004520Y005389D01*
X004520Y005231D02*
X000480Y005231D01*
X000480Y005072D02*
X004520Y005072D01*
X004520Y004914D02*
X000480Y004914D01*
X000480Y004755D02*
X004520Y004755D01*
X004520Y004597D02*
X000480Y004597D01*
X000480Y004438D02*
X004520Y004438D01*
X004520Y004280D02*
X000480Y004280D01*
X000480Y004121D02*
X004520Y004121D01*
X004520Y003963D02*
X000480Y003963D01*
X000480Y003804D02*
X004520Y003804D01*
X004520Y003646D02*
X000480Y003646D01*
X000480Y003487D02*
X004520Y003487D01*
X004520Y003329D02*
X000480Y003329D01*
X000480Y003170D02*
X004520Y003170D01*
X004520Y003012D02*
X000480Y003012D01*
X000480Y002853D02*
X004541Y002853D01*
X004627Y002695D02*
X000480Y002695D01*
X000480Y002536D02*
X004785Y002536D01*
X004944Y002378D02*
X000480Y002378D01*
X000480Y002219D02*
X005102Y002219D01*
X005307Y002061D02*
X000480Y002061D01*
X000480Y001902D02*
X000500Y001902D01*
X007266Y005389D02*
X009520Y005389D01*
X009520Y005548D02*
X009368Y005548D01*
X009480Y006340D02*
X009520Y006340D01*
X009678Y006499D02*
X009322Y006499D01*
X008678Y006499D02*
X007378Y006499D01*
X010885Y005706D02*
X019441Y005706D01*
X017520Y007767D02*
X015667Y007767D01*
X015695Y007925D02*
X017520Y007925D01*
X017520Y008084D02*
X015695Y008084D01*
X015658Y008242D02*
X017520Y008242D01*
X017520Y010144D02*
X005823Y010144D01*
X005981Y010303D02*
X017520Y010303D01*
X024222Y009193D02*
X027014Y009193D01*
X026856Y009035D02*
X024371Y009035D01*
X023020Y016643D02*
X010480Y016643D01*
X010480Y016801D02*
X023020Y016801D01*
X023020Y016960D02*
X010480Y016960D01*
X010471Y017118D02*
X023020Y017118D01*
X023020Y017277D02*
X010402Y017277D01*
X010244Y017435D02*
X022886Y017435D01*
X010728Y017594D02*
X010085Y017594D01*
X009927Y017752D02*
X010569Y017752D01*
X010411Y017911D02*
X009763Y017911D01*
X010252Y018069D02*
X009029Y018069D01*
X009058Y016960D02*
X009362Y016960D01*
X006820Y018069D02*
X001450Y018069D01*
X001686Y018228D02*
X006820Y018228D01*
X005237Y017911D02*
X000480Y017911D01*
X000480Y018069D02*
X000550Y018069D01*
X000480Y017752D02*
X005073Y017752D01*
X004915Y017594D02*
X000480Y017594D01*
X000480Y017435D02*
X004756Y017435D01*
X004598Y017277D02*
X000480Y017277D01*
X000480Y017118D02*
X004529Y017118D01*
X004520Y016960D02*
X000480Y016960D01*
X000480Y016801D02*
X004520Y016801D01*
X004520Y016643D02*
X000480Y016643D01*
X000480Y016484D02*
X004520Y016484D01*
X004520Y016326D02*
X000480Y016326D01*
X000480Y016167D02*
X004520Y016167D01*
X004520Y016009D02*
X000480Y016009D01*
X000480Y015850D02*
X004520Y015850D01*
X004520Y015692D02*
X000480Y015692D01*
X000480Y015533D02*
X004520Y015533D01*
X004520Y015375D02*
X000480Y015375D01*
X000480Y015216D02*
X004520Y015216D01*
X004520Y015058D02*
X000480Y015058D01*
X000480Y014899D02*
X004520Y014899D01*
X004520Y014741D02*
X000480Y014741D01*
X000480Y014582D02*
X004520Y014582D01*
X002268Y014424D02*
X000480Y014424D01*
X000480Y014265D02*
X002086Y014265D01*
X001928Y014107D02*
X000480Y014107D01*
X000480Y013948D02*
X001769Y013948D01*
X001611Y013790D02*
X000480Y013790D01*
X000480Y013631D02*
X001535Y013631D01*
X001520Y013473D02*
X000480Y013473D01*
X000480Y013314D02*
X001520Y013314D01*
X001520Y013156D02*
X000480Y013156D01*
X000480Y012997D02*
X001520Y012997D01*
X001520Y012839D02*
X000480Y012839D01*
X000480Y012680D02*
X001520Y012680D01*
X001520Y012522D02*
X000480Y012522D01*
X000480Y012363D02*
X001520Y012363D01*
X001520Y012205D02*
X000480Y012205D01*
X000480Y012046D02*
X001493Y012046D01*
X001209Y011888D02*
X000480Y011888D01*
X000480Y011729D02*
X001050Y011729D01*
X000892Y011571D02*
X000480Y011571D01*
X000480Y011412D02*
X000733Y011412D01*
X000585Y011254D02*
X000480Y011254D01*
X000480Y010937D02*
X000520Y010937D01*
X000520Y010778D02*
X000480Y010778D01*
X000480Y010620D02*
X000520Y010620D01*
X000520Y010461D02*
X000480Y010461D01*
X000480Y010303D02*
X000520Y010303D01*
X000520Y010144D02*
X000480Y010144D01*
X000480Y009986D02*
X000520Y009986D01*
X000520Y009827D02*
X000480Y009827D01*
X000480Y009669D02*
X000520Y009669D01*
X000520Y009510D02*
X000480Y009510D01*
X000480Y009352D02*
X000520Y009352D01*
X000520Y009193D02*
X000480Y009193D01*
X000480Y009035D02*
X000520Y009035D01*
X002603Y011095D02*
X005416Y011095D01*
X005575Y011254D02*
X002620Y011254D01*
X002620Y011412D02*
X005740Y011412D01*
X006694Y011571D02*
X002620Y011571D01*
X006140Y010461D02*
X006662Y010461D01*
X006633Y009510D02*
X006169Y009510D01*
X007349Y013473D02*
X008707Y013473D01*
X009293Y013473D02*
X009707Y013473D01*
X009549Y013631D02*
X009451Y013631D01*
X010293Y013473D02*
X010349Y013473D01*
X009520Y014424D02*
X009397Y014424D01*
X009520Y014582D02*
X007295Y014582D01*
X009087Y003012D02*
X009333Y003012D01*
M02*
