%
M48
M72
T01C0.0320
T02C0.0400
T03C0.1102
%
T01
X7300Y2500
X8700Y2500
X10000Y4500
X11000Y4500
X7500Y6500
X7500Y7500
X7500Y8500
X7500Y9500
X7500Y10500
X7500Y11500
X7500Y12500
X10000Y11200
X10000Y9800
X15000Y9000
X15000Y8000
X15000Y7000
X15000Y11500
X15000Y12500
X15000Y13500
X13000Y16000
X11000Y14000
X10000Y14000
X9000Y16800
X9000Y18200
X17000Y16000
X19500Y16000
X23500Y16000
X4500Y12500
X4500Y11500
X4500Y10500
X4500Y9500
X4500Y8500
X4500Y7500
X4500Y6500
T02
X2000Y8500
X2000Y9500
X2000Y10500
X2000Y11500
X5000Y14500
X7000Y14500
X11500Y16000
X13000Y14500
X13000Y12500
X12000Y11000
X14000Y11000
X14000Y9500
X12000Y9500
X7000Y4000
X5000Y4000
X11500Y18000
X28000Y10500
X28000Y9500
T03
X1000Y1000
X19800Y6620
X19800Y8400
X19800Y10900
X19000Y13500
X23700Y10900
X23700Y8400
X23700Y6620
X29000Y1000
X24500Y13500
X29000Y19000
X1000Y19000
M30
