G75*
%MOIN*%
%OFA0B0*%
%FSLAX24Y24*%
%IPPOS*%
%LPD*%
%AMOC8*
5,1,8,0,0,1.08239X$1,22.5*
%
%ADD10OC8,0.0630*%
%ADD11C,0.0630*%
%ADD12C,0.0520*%
%ADD13OC8,0.0520*%
%ADD14OC8,0.0600*%
%ADD15C,0.1502*%
%ADD16R,0.0600X0.0600*%
%ADD17C,0.0600*%
%ADD18OC8,0.0560*%
%ADD19C,0.0240*%
%ADD20C,0.0160*%
%ADD21C,0.0396*%
%ADD22C,0.0320*%
D10*
X008700Y002500D03*
X010000Y009800D03*
X015500Y015800D03*
X009000Y016800D03*
D11*
X009000Y018200D03*
X015500Y017200D03*
X010000Y011200D03*
X007300Y002500D03*
D12*
X007740Y006500D02*
X008260Y006500D01*
X008260Y007500D02*
X007740Y007500D01*
X007740Y008500D02*
X008260Y008500D01*
X008260Y009500D02*
X007740Y009500D01*
X007740Y010500D02*
X008260Y010500D01*
X008260Y011500D02*
X007740Y011500D01*
X007740Y012500D02*
X008260Y012500D01*
X005260Y012500D02*
X004740Y012500D01*
X004740Y011500D02*
X005260Y011500D01*
X005260Y010500D02*
X004740Y010500D01*
X004740Y009500D02*
X005260Y009500D01*
X005260Y008500D02*
X004740Y008500D01*
X004740Y007500D02*
X005260Y007500D01*
X005260Y006500D02*
X004740Y006500D01*
X014740Y007000D02*
X015260Y007000D01*
X015260Y008000D02*
X014740Y008000D01*
X014740Y009000D02*
X015260Y009000D01*
X015260Y011500D02*
X014740Y011500D01*
X014740Y012500D02*
X015260Y012500D01*
X015260Y013500D02*
X014740Y013500D01*
X020740Y016000D02*
X021260Y016000D01*
X024740Y016000D02*
X025260Y016000D01*
D13*
X013500Y016000D03*
X012750Y016500D03*
X013500Y017000D03*
X011000Y014000D03*
X010000Y014000D03*
X010000Y004500D03*
X011000Y004500D03*
D14*
X013000Y007000D03*
X013000Y009000D03*
X012000Y012000D03*
X014000Y012000D03*
X007000Y014500D03*
X005000Y014500D03*
X004000Y013500D03*
X003000Y013500D03*
X003000Y011500D03*
X004000Y011500D03*
X005000Y004000D03*
X007000Y004000D03*
D15*
X021050Y006620D03*
X021050Y008400D03*
X021050Y010900D03*
X020500Y013500D03*
X025450Y010900D03*
X025450Y008400D03*
X025450Y006620D03*
X026000Y013500D03*
D16*
X029000Y010500D03*
X002000Y011500D03*
D17*
X002000Y010500D03*
X002000Y009500D03*
X002000Y008500D03*
X029000Y009500D03*
D18*
X017000Y009000D03*
X017000Y012000D03*
D19*
X017000Y011000D01*
X016750Y010750D01*
X013250Y010750D01*
X013000Y011000D01*
X013000Y012500D01*
X012750Y012750D01*
X010750Y012750D01*
X010000Y012000D01*
X008000Y012500D02*
X007000Y012500D01*
X006000Y013500D01*
X004000Y013500D01*
X003000Y013500D01*
X003500Y012500D02*
X003000Y012000D01*
X003000Y011500D01*
X003000Y011000D01*
X002500Y010500D01*
X002000Y010500D01*
X002000Y009500D02*
X003500Y009500D01*
X004000Y010000D01*
X004500Y010500D01*
X005000Y010500D01*
X004000Y010000D02*
X004000Y011500D01*
X005000Y011500D02*
X006500Y011500D01*
X007000Y011000D01*
X007000Y006250D01*
X007500Y005750D01*
X009000Y005750D01*
X009500Y006250D01*
X009500Y008500D01*
X010000Y009000D01*
X011750Y009000D01*
X012000Y009250D01*
X012000Y012000D01*
X013000Y009000D02*
X013750Y009000D01*
X014000Y008750D01*
X014000Y008250D01*
X014250Y008000D01*
X015000Y008000D01*
X013000Y007000D02*
X010500Y007000D01*
X010250Y006750D01*
X010250Y006250D01*
X009250Y005250D01*
X007250Y005250D01*
X006250Y006250D01*
X006250Y009250D01*
X006000Y009500D01*
X005000Y009500D01*
X005000Y012500D02*
X003500Y012500D01*
D20*
X001890Y000480D02*
X028110Y000480D01*
X028039Y000602D01*
X027969Y000864D01*
X027969Y001136D01*
X028039Y001398D01*
X028175Y001633D01*
X028367Y001825D01*
X028602Y001961D01*
X028864Y002031D01*
X029136Y002031D01*
X029398Y001961D01*
X029520Y001890D01*
X029520Y009143D01*
X029351Y008974D01*
X029123Y008880D01*
X028877Y008880D01*
X028862Y008886D01*
X027188Y008009D01*
X027172Y007993D01*
X027104Y007965D01*
X027038Y007930D01*
X027016Y007929D01*
X026995Y007920D01*
X026922Y007920D01*
X026848Y007913D01*
X026827Y007920D01*
X026410Y007920D01*
X026307Y007742D01*
X026108Y007543D01*
X026051Y007510D01*
X026108Y007477D01*
X026307Y007278D01*
X026448Y007033D01*
X026521Y006761D01*
X026521Y006479D01*
X026448Y006207D01*
X026307Y005962D01*
X026108Y005763D01*
X025863Y005622D01*
X025591Y005549D01*
X025309Y005549D01*
X025037Y005622D01*
X024792Y005763D01*
X024593Y005962D01*
X024452Y006207D01*
X024379Y006479D01*
X024379Y006761D01*
X024452Y007033D01*
X024593Y007278D01*
X024792Y007477D01*
X024849Y007510D01*
X024792Y007543D01*
X024593Y007742D01*
X024452Y007987D01*
X024379Y008259D01*
X024379Y008541D01*
X024452Y008813D01*
X024593Y009058D01*
X024792Y009257D01*
X025037Y009398D01*
X025309Y009471D01*
X025591Y009471D01*
X025863Y009398D01*
X026108Y009257D01*
X026307Y009058D01*
X026410Y008880D01*
X026782Y008880D01*
X028430Y009743D01*
X028474Y009851D01*
X028542Y009919D01*
X028519Y009929D01*
X028429Y010019D01*
X028380Y010136D01*
X028380Y010178D01*
X027533Y010420D01*
X026410Y010420D01*
X026307Y010242D01*
X026108Y010043D01*
X025863Y009902D01*
X025591Y009829D01*
X025309Y009829D01*
X025037Y009902D01*
X024792Y010043D01*
X024593Y010242D01*
X024452Y010487D01*
X024379Y010759D01*
X024379Y011041D01*
X024452Y011313D01*
X024593Y011558D01*
X024792Y011757D01*
X025037Y011898D01*
X025309Y011971D01*
X025591Y011971D01*
X025863Y011898D01*
X026108Y011757D01*
X026307Y011558D01*
X026410Y011380D01*
X027573Y011380D01*
X027640Y011388D01*
X027667Y011380D01*
X027695Y011380D01*
X027758Y011354D01*
X028612Y011110D01*
X028636Y011120D01*
X029364Y011120D01*
X029481Y011071D01*
X029520Y011033D01*
X029520Y018110D01*
X029398Y018039D01*
X029136Y017969D01*
X028864Y017969D01*
X028602Y018039D01*
X028367Y018175D01*
X028175Y018367D01*
X028039Y018602D01*
X027969Y018864D01*
X027969Y019136D01*
X028039Y019398D01*
X028109Y019520D01*
X001893Y019516D01*
X001961Y019398D01*
X002031Y019136D01*
X002031Y018864D01*
X001961Y018602D01*
X001825Y018367D01*
X001633Y018175D01*
X001398Y018039D01*
X001136Y017969D01*
X000864Y017969D01*
X000602Y018039D01*
X000480Y018110D01*
X000480Y001890D01*
X000602Y001961D01*
X000864Y002031D01*
X001136Y002031D01*
X001398Y001961D01*
X001633Y001825D01*
X001825Y001633D01*
X001961Y001398D01*
X002031Y001136D01*
X002031Y000864D01*
X001961Y000602D01*
X001890Y000480D01*
X001969Y000634D02*
X028031Y000634D01*
X027988Y000793D02*
X002012Y000793D01*
X002031Y000951D02*
X027969Y000951D01*
X027969Y001110D02*
X002031Y001110D01*
X001996Y001268D02*
X028004Y001268D01*
X028056Y001427D02*
X001944Y001427D01*
X001853Y001585D02*
X028147Y001585D01*
X028285Y001744D02*
X001715Y001744D01*
X001500Y001902D02*
X007084Y001902D01*
X007174Y001865D02*
X007426Y001865D01*
X007660Y001962D01*
X007838Y002140D01*
X007935Y002374D01*
X007935Y002626D01*
X007838Y002860D01*
X007660Y003038D01*
X007426Y003135D01*
X007174Y003135D01*
X006940Y003038D01*
X006882Y002980D01*
X005699Y002980D01*
X005480Y003199D01*
X005480Y003603D01*
X005620Y003743D01*
X005620Y004257D01*
X005257Y004620D01*
X004743Y004620D01*
X004603Y004480D01*
X001699Y004480D01*
X001480Y004699D01*
X001480Y009143D01*
X001649Y008974D01*
X001773Y008923D01*
X001748Y008911D01*
X001687Y008866D01*
X001634Y008813D01*
X001589Y008752D01*
X001555Y008684D01*
X001532Y008612D01*
X001520Y008538D01*
X001520Y008520D01*
X001980Y008520D01*
X001980Y008480D01*
X002020Y008480D01*
X002020Y008520D01*
X002480Y008520D01*
X002480Y008538D01*
X002468Y008612D01*
X002445Y008684D01*
X002411Y008752D01*
X002366Y008813D01*
X002313Y008866D01*
X002252Y008911D01*
X002227Y008923D01*
X002351Y008974D01*
X002437Y009060D01*
X003588Y009060D01*
X003749Y009127D01*
X004160Y009538D01*
X004160Y009385D01*
X004248Y009171D01*
X004411Y009008D01*
X004431Y009000D01*
X004411Y008992D01*
X004248Y008829D01*
X004160Y008615D01*
X004160Y008385D01*
X004248Y008171D01*
X004411Y008008D01*
X004431Y008000D01*
X004411Y007992D01*
X004248Y007829D01*
X004160Y007615D01*
X004160Y007385D01*
X004248Y007171D01*
X004411Y007008D01*
X004618Y006923D01*
X004571Y006908D01*
X004509Y006876D01*
X004453Y006836D01*
X004404Y006787D01*
X004364Y006731D01*
X004332Y006669D01*
X004311Y006603D01*
X004300Y006535D01*
X004300Y006500D01*
X005000Y006500D01*
X005700Y006500D01*
X005700Y006535D01*
X005689Y006603D01*
X005668Y006669D01*
X005636Y006731D01*
X005596Y006787D01*
X005547Y006836D01*
X005491Y006876D01*
X005429Y006908D01*
X005382Y006923D01*
X005589Y007008D01*
X005752Y007171D01*
X005810Y007312D01*
X005810Y006162D01*
X005877Y006001D01*
X006877Y005001D01*
X007001Y004877D01*
X007140Y004819D01*
X007093Y004772D01*
X006941Y004620D01*
X006743Y004620D01*
X006380Y004257D01*
X006380Y003743D01*
X006743Y003380D01*
X007257Y003380D01*
X007620Y003743D01*
X007620Y003941D01*
X007699Y004020D01*
X009660Y004020D01*
X009760Y003920D01*
X010240Y003920D01*
X010500Y004180D01*
X010520Y004160D01*
X010520Y003199D01*
X010301Y002980D01*
X009118Y002980D01*
X008963Y003135D01*
X008437Y003135D01*
X008065Y002763D01*
X008065Y002237D01*
X008437Y001865D01*
X008963Y001865D01*
X009118Y002020D01*
X010595Y002020D01*
X010772Y002093D01*
X011272Y002593D01*
X011407Y002728D01*
X011480Y002905D01*
X011480Y004160D01*
X011580Y004260D01*
X011580Y004401D01*
X011699Y004520D01*
X014595Y004520D01*
X014772Y004593D01*
X014907Y004728D01*
X015272Y005093D01*
X015407Y005228D01*
X015480Y005405D01*
X015480Y006463D01*
X015589Y006508D01*
X015600Y006520D01*
X019095Y006520D01*
X019272Y006593D01*
X019407Y006728D01*
X019907Y007228D01*
X019980Y007405D01*
X019980Y008255D01*
X020052Y007987D01*
X020193Y007742D01*
X020392Y007543D01*
X020449Y007510D01*
X020392Y007477D01*
X020193Y007278D01*
X020052Y007033D01*
X019979Y006761D01*
X019979Y006479D01*
X020052Y006207D01*
X020193Y005962D01*
X020392Y005763D01*
X020637Y005622D01*
X020909Y005549D01*
X021191Y005549D01*
X021463Y005622D01*
X021708Y005763D01*
X021907Y005962D01*
X022048Y006207D01*
X022121Y006479D01*
X022121Y006761D01*
X022048Y007033D01*
X021907Y007278D01*
X021708Y007477D01*
X021651Y007510D01*
X021708Y007543D01*
X021907Y007742D01*
X022048Y007987D01*
X022121Y008259D01*
X022121Y008541D01*
X022048Y008813D01*
X021907Y009058D01*
X021708Y009257D01*
X021463Y009398D01*
X021191Y009471D01*
X020909Y009471D01*
X020637Y009398D01*
X020392Y009257D01*
X020193Y009058D01*
X020052Y008813D01*
X019980Y008545D01*
X019980Y010755D01*
X020052Y010487D01*
X020193Y010242D01*
X020392Y010043D01*
X020637Y009902D01*
X020909Y009829D01*
X021191Y009829D01*
X021463Y009902D01*
X021708Y010043D01*
X021907Y010242D01*
X022048Y010487D01*
X022121Y010759D01*
X022121Y011041D01*
X022048Y011313D01*
X021907Y011558D01*
X021708Y011757D01*
X021463Y011898D01*
X021191Y011971D01*
X020909Y011971D01*
X020637Y011898D01*
X020392Y011757D01*
X020193Y011558D01*
X020052Y011313D01*
X019980Y011045D01*
X019980Y011801D01*
X020608Y012429D01*
X020641Y012429D01*
X020913Y012502D01*
X021158Y012643D01*
X021357Y012842D01*
X021498Y013087D01*
X021571Y013359D01*
X021571Y013641D01*
X021498Y013913D01*
X021357Y014158D01*
X021158Y014357D01*
X020980Y014460D01*
X020980Y015301D01*
X021099Y015420D01*
X021375Y015420D01*
X021589Y015508D01*
X021752Y015671D01*
X021840Y015885D01*
X021840Y016115D01*
X021752Y016329D01*
X021589Y016492D01*
X021375Y016580D01*
X020625Y016580D01*
X020411Y016492D01*
X020248Y016329D01*
X020160Y016115D01*
X020160Y015885D01*
X020173Y015852D01*
X020093Y015772D01*
X020020Y015595D01*
X020020Y014460D01*
X019842Y014357D01*
X019643Y014158D01*
X019502Y013913D01*
X019429Y013641D01*
X019429Y013359D01*
X019502Y013087D01*
X019643Y012842D01*
X019653Y012832D01*
X019228Y012407D01*
X019093Y012272D01*
X019020Y012095D01*
X019020Y007699D01*
X018801Y007480D01*
X015600Y007480D01*
X015589Y007492D01*
X015569Y007500D01*
X015589Y007508D01*
X015752Y007671D01*
X015840Y007885D01*
X015840Y008115D01*
X015752Y008329D01*
X015589Y008492D01*
X015382Y008577D01*
X015429Y008592D01*
X015491Y008624D01*
X015547Y008664D01*
X015596Y008713D01*
X015636Y008769D01*
X015668Y008831D01*
X015689Y008897D01*
X015700Y008965D01*
X015700Y009000D01*
X015700Y009035D01*
X015689Y009103D01*
X015668Y009169D01*
X015636Y009231D01*
X015596Y009287D01*
X015547Y009336D01*
X015491Y009376D01*
X015429Y009408D01*
X015363Y009429D01*
X015295Y009440D01*
X015000Y009440D01*
X015000Y009000D01*
X015000Y009000D01*
X015700Y009000D01*
X015000Y009000D01*
X015000Y009000D01*
X015000Y009440D01*
X014705Y009440D01*
X014637Y009429D01*
X014571Y009408D01*
X014509Y009376D01*
X014453Y009336D01*
X014404Y009287D01*
X014364Y009231D01*
X014332Y009169D01*
X014311Y009103D01*
X014305Y009067D01*
X014249Y009123D01*
X013999Y009373D01*
X013838Y009440D01*
X013437Y009440D01*
X013257Y009620D01*
X012743Y009620D01*
X012440Y009317D01*
X012440Y011563D01*
X012560Y011683D01*
X012560Y010912D01*
X012627Y010751D01*
X012877Y010501D01*
X013001Y010377D01*
X013162Y010310D01*
X016838Y010310D01*
X016999Y010377D01*
X017249Y010627D01*
X017373Y010751D01*
X017440Y010912D01*
X017440Y011591D01*
X017600Y011751D01*
X017600Y012249D01*
X017480Y012369D01*
X017480Y014595D01*
X017407Y014772D01*
X017272Y014907D01*
X016772Y015407D01*
X016595Y015480D01*
X015880Y015480D01*
X015995Y015595D01*
X015995Y015800D01*
X015995Y016005D01*
X015705Y016295D01*
X015500Y016295D01*
X015500Y015800D01*
X015500Y015800D01*
X015995Y015800D01*
X015500Y015800D01*
X015500Y015800D01*
X015500Y015800D01*
X015005Y015800D01*
X015005Y016005D01*
X015295Y016295D01*
X015500Y016295D01*
X015500Y015800D01*
X015005Y015800D01*
X015005Y015595D01*
X015120Y015480D01*
X014199Y015480D01*
X014000Y015679D01*
X014080Y015760D01*
X014080Y016240D01*
X013820Y016500D01*
X013840Y016520D01*
X015395Y016520D01*
X015504Y016565D01*
X015626Y016565D01*
X015860Y016662D01*
X016038Y016840D01*
X016135Y017074D01*
X016135Y017326D01*
X016038Y017560D01*
X015878Y017720D01*
X024101Y017720D01*
X024520Y017301D01*
X024520Y016537D01*
X024411Y016492D01*
X024248Y016329D01*
X024160Y016115D01*
X024160Y015885D01*
X024248Y015671D01*
X024411Y015508D01*
X024520Y015463D01*
X024520Y014405D01*
X024593Y014228D01*
X024728Y014093D01*
X024728Y014093D01*
X024982Y013839D01*
X024929Y013641D01*
X024929Y013359D01*
X025002Y013087D01*
X025143Y012842D01*
X025342Y012643D01*
X025587Y012502D01*
X025859Y012429D01*
X026141Y012429D01*
X026413Y012502D01*
X026658Y012643D01*
X026857Y012842D01*
X026998Y013087D01*
X027071Y013359D01*
X027071Y013641D01*
X026998Y013913D01*
X026857Y014158D01*
X026658Y014357D01*
X026413Y014498D01*
X026141Y014571D01*
X025859Y014571D01*
X025661Y014518D01*
X025480Y014699D01*
X025480Y015463D01*
X025589Y015508D01*
X025752Y015671D01*
X025840Y015885D01*
X025840Y016115D01*
X025752Y016329D01*
X025589Y016492D01*
X025480Y016537D01*
X025480Y017595D01*
X025407Y017772D01*
X025272Y017907D01*
X024707Y018472D01*
X024572Y018607D01*
X024395Y018680D01*
X009418Y018680D01*
X009360Y018738D01*
X009126Y018835D01*
X008874Y018835D01*
X008640Y018738D01*
X008462Y018560D01*
X008429Y018480D01*
X005405Y018480D01*
X005228Y018407D01*
X005093Y018272D01*
X004593Y017772D01*
X004520Y017595D01*
X004520Y014980D01*
X002405Y014980D01*
X002228Y014907D01*
X002093Y014772D01*
X001593Y014272D01*
X001520Y014095D01*
X001520Y012072D01*
X001519Y012071D01*
X001429Y011981D01*
X001428Y011980D01*
X001405Y011980D01*
X001228Y011907D01*
X001093Y011772D01*
X000593Y011272D01*
X000520Y011095D01*
X000480Y011095D01*
X000520Y011095D02*
X000520Y004405D01*
X000593Y004228D01*
X000728Y004093D01*
X001228Y003593D01*
X001405Y003520D01*
X004520Y003520D01*
X004520Y002905D01*
X004593Y002728D01*
X005093Y002228D01*
X005228Y002093D01*
X005405Y002020D01*
X006882Y002020D01*
X006940Y001962D01*
X007174Y001865D01*
X007516Y001902D02*
X008400Y001902D01*
X008241Y002061D02*
X007759Y002061D01*
X007871Y002219D02*
X008083Y002219D01*
X008065Y002378D02*
X007935Y002378D01*
X007935Y002536D02*
X008065Y002536D01*
X008065Y002695D02*
X007907Y002695D01*
X007841Y002853D02*
X008155Y002853D01*
X008313Y003012D02*
X007687Y003012D01*
X007364Y003487D02*
X010520Y003487D01*
X010520Y003329D02*
X005480Y003329D01*
X005480Y003487D02*
X006636Y003487D01*
X006478Y003646D02*
X005522Y003646D01*
X005620Y003804D02*
X006380Y003804D01*
X006380Y003963D02*
X005620Y003963D01*
X005620Y004121D02*
X006380Y004121D01*
X006403Y004280D02*
X005597Y004280D01*
X005439Y004438D02*
X006561Y004438D01*
X006720Y004597D02*
X005280Y004597D01*
X004720Y004597D02*
X001582Y004597D01*
X001480Y004755D02*
X007076Y004755D01*
X006964Y004914D02*
X001480Y004914D01*
X001480Y005072D02*
X006806Y005072D01*
X006647Y005231D02*
X001480Y005231D01*
X001480Y005389D02*
X006489Y005389D01*
X006330Y005548D02*
X001480Y005548D01*
X001480Y005706D02*
X006172Y005706D01*
X006013Y005865D02*
X001480Y005865D01*
X001480Y006023D02*
X005868Y006023D01*
X005810Y006182D02*
X005564Y006182D01*
X005547Y006164D02*
X005596Y006213D01*
X005636Y006269D01*
X005668Y006331D01*
X005689Y006397D01*
X005700Y006465D01*
X005700Y006500D01*
X005000Y006500D01*
X005000Y006500D01*
X005000Y006060D01*
X005295Y006060D01*
X005363Y006071D01*
X005429Y006092D01*
X005491Y006124D01*
X005547Y006164D01*
X005671Y006340D02*
X005810Y006340D01*
X005810Y006499D02*
X005700Y006499D01*
X005672Y006657D02*
X005810Y006657D01*
X005810Y006816D02*
X005567Y006816D01*
X005506Y006974D02*
X005810Y006974D01*
X005810Y007133D02*
X005713Y007133D01*
X005801Y007291D02*
X005810Y007291D01*
X005000Y006500D02*
X005000Y006500D01*
X005000Y006500D01*
X005000Y006060D01*
X004705Y006060D01*
X004637Y006071D01*
X004571Y006092D01*
X004509Y006124D01*
X004453Y006164D01*
X004404Y006213D01*
X004364Y006269D01*
X004332Y006331D01*
X004311Y006397D01*
X004300Y006465D01*
X004300Y006500D01*
X005000Y006500D01*
X005000Y006499D02*
X005000Y006499D01*
X005000Y006340D02*
X005000Y006340D01*
X005000Y006182D02*
X005000Y006182D01*
X004436Y006182D02*
X001480Y006182D01*
X001480Y006340D02*
X004329Y006340D01*
X004300Y006499D02*
X001480Y006499D01*
X001480Y006657D02*
X004328Y006657D01*
X004433Y006816D02*
X001480Y006816D01*
X001480Y006974D02*
X004494Y006974D01*
X004287Y007133D02*
X001480Y007133D01*
X001480Y007291D02*
X004199Y007291D01*
X004160Y007450D02*
X001480Y007450D01*
X001480Y007608D02*
X004160Y007608D01*
X004223Y007767D02*
X001480Y007767D01*
X001480Y007925D02*
X004345Y007925D01*
X004336Y008084D02*
X002240Y008084D01*
X002252Y008089D02*
X002313Y008134D01*
X002366Y008187D01*
X002411Y008248D01*
X002445Y008316D01*
X002468Y008388D01*
X002480Y008462D01*
X002480Y008480D01*
X002020Y008480D01*
X002020Y008020D01*
X002038Y008020D01*
X002112Y008032D01*
X002184Y008055D01*
X002252Y008089D01*
X002406Y008242D02*
X004219Y008242D01*
X004160Y008401D02*
X002470Y008401D01*
X002477Y008559D02*
X004160Y008559D01*
X004202Y008718D02*
X002428Y008718D01*
X002299Y008876D02*
X004296Y008876D01*
X004385Y009035D02*
X002411Y009035D01*
X001701Y008876D02*
X001480Y008876D01*
X001480Y008718D02*
X001572Y008718D01*
X001523Y008559D02*
X001480Y008559D01*
X001520Y008480D02*
X001520Y008462D01*
X001532Y008388D01*
X001555Y008316D01*
X001589Y008248D01*
X001634Y008187D01*
X001687Y008134D01*
X001748Y008089D01*
X001816Y008055D01*
X001888Y008032D01*
X001962Y008020D01*
X001980Y008020D01*
X001980Y008480D01*
X001520Y008480D01*
X001530Y008401D02*
X001480Y008401D01*
X001480Y008242D02*
X001594Y008242D01*
X001480Y008084D02*
X001760Y008084D01*
X001980Y008084D02*
X002020Y008084D01*
X002020Y008242D02*
X001980Y008242D01*
X001980Y008401D02*
X002020Y008401D01*
X001589Y009035D02*
X001480Y009035D01*
X000520Y009035D02*
X000480Y009035D01*
X000480Y009193D02*
X000520Y009193D01*
X000520Y009352D02*
X000480Y009352D01*
X000480Y009510D02*
X000520Y009510D01*
X000520Y009669D02*
X000480Y009669D01*
X000480Y009827D02*
X000520Y009827D01*
X000520Y009986D02*
X000480Y009986D01*
X000480Y010144D02*
X000520Y010144D01*
X000520Y010303D02*
X000480Y010303D01*
X000480Y010461D02*
X000520Y010461D01*
X000520Y010620D02*
X000480Y010620D01*
X000480Y010778D02*
X000520Y010778D01*
X000520Y010937D02*
X000480Y010937D01*
X000480Y011254D02*
X000585Y011254D01*
X000480Y011412D02*
X000733Y011412D01*
X000892Y011571D02*
X000480Y011571D01*
X000480Y011729D02*
X001050Y011729D01*
X001209Y011888D02*
X000480Y011888D01*
X000480Y012046D02*
X001493Y012046D01*
X001520Y012205D02*
X000480Y012205D01*
X000480Y012363D02*
X001520Y012363D01*
X001520Y012522D02*
X000480Y012522D01*
X000480Y012680D02*
X001520Y012680D01*
X001520Y012839D02*
X000480Y012839D01*
X000480Y012997D02*
X001520Y012997D01*
X001520Y013156D02*
X000480Y013156D01*
X000480Y013314D02*
X001520Y013314D01*
X001520Y013473D02*
X000480Y013473D01*
X000480Y013631D02*
X001520Y013631D01*
X001520Y013790D02*
X000480Y013790D01*
X000480Y013948D02*
X001520Y013948D01*
X001525Y014107D02*
X000480Y014107D01*
X000480Y014265D02*
X001590Y014265D01*
X001745Y014424D02*
X000480Y014424D01*
X000480Y014582D02*
X001903Y014582D01*
X002062Y014741D02*
X000480Y014741D01*
X000480Y014899D02*
X002220Y014899D01*
X000480Y015058D02*
X004520Y015058D01*
X004520Y015216D02*
X000480Y015216D01*
X000480Y015375D02*
X004520Y015375D01*
X004520Y015533D02*
X000480Y015533D01*
X000480Y015692D02*
X004520Y015692D01*
X004520Y015850D02*
X000480Y015850D01*
X000480Y016009D02*
X004520Y016009D01*
X004520Y016167D02*
X000480Y016167D01*
X000480Y016326D02*
X004520Y016326D01*
X004520Y016484D02*
X000480Y016484D01*
X000480Y016643D02*
X004520Y016643D01*
X004520Y016801D02*
X000480Y016801D01*
X000480Y016960D02*
X004520Y016960D01*
X004520Y017118D02*
X000480Y017118D01*
X000480Y017277D02*
X004520Y017277D01*
X004520Y017435D02*
X000480Y017435D01*
X000480Y017594D02*
X004520Y017594D01*
X004585Y017752D02*
X000480Y017752D01*
X000480Y017911D02*
X004732Y017911D01*
X004890Y018069D02*
X001450Y018069D01*
X001686Y018228D02*
X005049Y018228D01*
X005207Y018386D02*
X001836Y018386D01*
X001928Y018545D02*
X008455Y018545D01*
X008605Y018703D02*
X001988Y018703D01*
X002030Y018862D02*
X027970Y018862D01*
X027969Y019020D02*
X002031Y019020D01*
X002020Y019179D02*
X027980Y019179D01*
X028023Y019337D02*
X001977Y019337D01*
X001905Y019496D02*
X028095Y019496D01*
X028012Y018703D02*
X009395Y018703D01*
X009418Y017720D02*
X009360Y017662D01*
X009126Y017565D01*
X009004Y017565D01*
X008895Y017520D01*
X005699Y017520D01*
X005480Y017301D01*
X005480Y014897D01*
X005620Y014757D01*
X005620Y014243D01*
X005317Y013940D01*
X006088Y013940D01*
X006249Y013873D01*
X007182Y012940D01*
X007360Y012940D01*
X007411Y012992D01*
X007625Y013080D01*
X008375Y013080D01*
X008589Y012992D01*
X008600Y012980D01*
X009595Y012980D01*
X009772Y012907D01*
X009907Y012772D01*
X010028Y012651D01*
X010377Y012999D01*
X010501Y013123D01*
X010662Y013190D01*
X011631Y013190D01*
X011593Y013228D01*
X011321Y013500D01*
X011240Y013420D01*
X010760Y013420D01*
X010500Y013680D01*
X010240Y013420D01*
X009760Y013420D01*
X009420Y013760D01*
X009420Y013901D01*
X009301Y014020D01*
X007397Y014020D01*
X007257Y013880D01*
X006743Y013880D01*
X006380Y014243D01*
X006380Y014757D01*
X006743Y015120D01*
X007257Y015120D01*
X007397Y014980D01*
X009595Y014980D01*
X009772Y014907D01*
X009907Y014772D01*
X009907Y014772D01*
X010020Y014659D01*
X010020Y016301D01*
X010001Y016320D01*
X009418Y016320D01*
X009263Y016165D01*
X008737Y016165D01*
X008365Y016537D01*
X008365Y017063D01*
X008737Y017435D01*
X009263Y017435D01*
X009418Y017280D01*
X010295Y017280D01*
X010472Y017207D01*
X010772Y016907D01*
X010907Y016772D01*
X010980Y016595D01*
X010980Y014699D01*
X011099Y014580D01*
X011240Y014580D01*
X011340Y014480D01*
X011595Y014480D01*
X011772Y014407D01*
X012199Y013980D01*
X014400Y013980D01*
X014411Y013992D01*
X014625Y014080D01*
X015375Y014080D01*
X015589Y013992D01*
X015752Y013829D01*
X015840Y013615D01*
X015840Y013385D01*
X015752Y013171D01*
X015589Y013008D01*
X015569Y013000D01*
X015589Y012992D01*
X015752Y012829D01*
X015840Y012615D01*
X015840Y012385D01*
X015752Y012171D01*
X015589Y012008D01*
X015382Y011923D01*
X015429Y011908D01*
X015491Y011876D01*
X015547Y011836D01*
X015596Y011787D01*
X015636Y011731D01*
X015668Y011669D01*
X015689Y011603D01*
X015700Y011535D01*
X015700Y011500D01*
X015000Y011500D01*
X015000Y011500D01*
X015700Y011500D01*
X015700Y011465D01*
X015689Y011397D01*
X015668Y011331D01*
X015636Y011269D01*
X015596Y011213D01*
X015572Y011190D01*
X016560Y011190D01*
X016560Y011591D01*
X016400Y011751D01*
X016400Y012249D01*
X016520Y012369D01*
X016520Y014301D01*
X016301Y014520D01*
X013905Y014520D01*
X013728Y014593D01*
X013593Y014728D01*
X013093Y015228D01*
X013020Y015405D01*
X013020Y015660D01*
X012920Y015760D01*
X012920Y016060D01*
X012750Y016060D01*
X012750Y016500D01*
X012750Y016500D01*
X012750Y016940D01*
X012920Y016940D01*
X012920Y017240D01*
X013020Y017340D01*
X013020Y017501D01*
X012801Y017720D01*
X009418Y017720D01*
X009195Y017594D02*
X012928Y017594D01*
X013020Y017435D02*
X005614Y017435D01*
X005480Y017277D02*
X008579Y017277D01*
X008420Y017118D02*
X005480Y017118D01*
X005480Y016960D02*
X008365Y016960D01*
X008365Y016801D02*
X005480Y016801D01*
X005480Y016643D02*
X008365Y016643D01*
X008418Y016484D02*
X005480Y016484D01*
X005480Y016326D02*
X008576Y016326D01*
X008735Y016167D02*
X005480Y016167D01*
X005480Y016009D02*
X010020Y016009D01*
X010020Y016167D02*
X009265Y016167D01*
X010020Y015850D02*
X005480Y015850D01*
X005480Y015692D02*
X010020Y015692D01*
X010020Y015533D02*
X005480Y015533D01*
X005480Y015375D02*
X010020Y015375D01*
X010020Y015216D02*
X005480Y015216D01*
X005480Y015058D02*
X006681Y015058D01*
X006522Y014899D02*
X005480Y014899D01*
X005620Y014741D02*
X006380Y014741D01*
X006380Y014582D02*
X005620Y014582D01*
X005620Y014424D02*
X006380Y014424D01*
X006380Y014265D02*
X005620Y014265D01*
X005483Y014107D02*
X006517Y014107D01*
X006675Y013948D02*
X005325Y013948D01*
X006333Y013790D02*
X009420Y013790D01*
X009373Y013948D02*
X007325Y013948D01*
X006808Y013314D02*
X011507Y013314D01*
X011349Y013473D02*
X011293Y013473D01*
X010707Y013473D02*
X010293Y013473D01*
X010451Y013631D02*
X010549Y013631D01*
X010579Y013156D02*
X006967Y013156D01*
X007125Y012997D02*
X007424Y012997D01*
X006650Y013473D02*
X009707Y013473D01*
X009549Y013631D02*
X006491Y013631D01*
X007319Y015058D02*
X010020Y015058D01*
X010020Y014899D02*
X009780Y014899D01*
X009938Y014741D02*
X010020Y014741D01*
X010980Y014741D02*
X013581Y014741D01*
X013422Y014899D02*
X010980Y014899D01*
X010980Y015058D02*
X013264Y015058D01*
X013105Y015216D02*
X010980Y015216D01*
X010980Y015375D02*
X013032Y015375D01*
X013020Y015533D02*
X010980Y015533D01*
X010980Y015692D02*
X012988Y015692D01*
X012920Y015850D02*
X010980Y015850D01*
X010980Y016009D02*
X012920Y016009D01*
X012750Y016060D02*
X012750Y016500D01*
X012750Y016500D01*
X012750Y016500D01*
X012310Y016500D01*
X012310Y016682D01*
X012568Y016940D01*
X012750Y016940D01*
X012750Y016500D01*
X012310Y016500D01*
X012310Y016318D01*
X012568Y016060D01*
X012750Y016060D01*
X012750Y016167D02*
X012750Y016167D01*
X012750Y016326D02*
X012750Y016326D01*
X012750Y016484D02*
X012750Y016484D01*
X012750Y016643D02*
X012750Y016643D01*
X012750Y016801D02*
X012750Y016801D01*
X012920Y016960D02*
X010719Y016960D01*
X010561Y017118D02*
X012920Y017118D01*
X012956Y017277D02*
X010304Y017277D01*
X010878Y016801D02*
X012429Y016801D01*
X012310Y016643D02*
X010961Y016643D01*
X010980Y016484D02*
X012310Y016484D01*
X012310Y016326D02*
X010980Y016326D01*
X010980Y016167D02*
X012461Y016167D01*
X013836Y016484D02*
X020404Y016484D01*
X020247Y016326D02*
X013995Y016326D01*
X014080Y016167D02*
X015167Y016167D01*
X015008Y016009D02*
X014080Y016009D01*
X014080Y015850D02*
X015005Y015850D01*
X015005Y015692D02*
X014012Y015692D01*
X014146Y015533D02*
X015067Y015533D01*
X015500Y015850D02*
X015500Y015850D01*
X015500Y016009D02*
X015500Y016009D01*
X015500Y016167D02*
X015500Y016167D01*
X015833Y016167D02*
X020181Y016167D01*
X020160Y016009D02*
X015992Y016009D01*
X015995Y015850D02*
X020171Y015850D01*
X020060Y015692D02*
X015995Y015692D01*
X015933Y015533D02*
X020020Y015533D01*
X020020Y015375D02*
X016804Y015375D01*
X016963Y015216D02*
X020020Y015216D01*
X020020Y015058D02*
X017121Y015058D01*
X017280Y014899D02*
X020020Y014899D01*
X020020Y014741D02*
X017420Y014741D01*
X017480Y014582D02*
X020020Y014582D01*
X019957Y014424D02*
X017480Y014424D01*
X017480Y014265D02*
X019750Y014265D01*
X019613Y014107D02*
X017480Y014107D01*
X017480Y013948D02*
X019522Y013948D01*
X019469Y013790D02*
X017480Y013790D01*
X017480Y013631D02*
X019429Y013631D01*
X019429Y013473D02*
X017480Y013473D01*
X017480Y013314D02*
X019441Y013314D01*
X019483Y013156D02*
X017480Y013156D01*
X017480Y012997D02*
X019554Y012997D01*
X019647Y012839D02*
X017480Y012839D01*
X017480Y012680D02*
X019501Y012680D01*
X019343Y012522D02*
X017480Y012522D01*
X017486Y012363D02*
X019184Y012363D01*
X019065Y012205D02*
X017600Y012205D01*
X017600Y012046D02*
X019020Y012046D01*
X019020Y011888D02*
X017600Y011888D01*
X017578Y011729D02*
X019020Y011729D01*
X019020Y011571D02*
X017440Y011571D01*
X017440Y011412D02*
X019020Y011412D01*
X019020Y011254D02*
X017440Y011254D01*
X017440Y011095D02*
X019020Y011095D01*
X019020Y010937D02*
X017440Y010937D01*
X017384Y010778D02*
X019020Y010778D01*
X019020Y010620D02*
X017242Y010620D01*
X017083Y010461D02*
X019020Y010461D01*
X019020Y010303D02*
X012440Y010303D01*
X012440Y010461D02*
X012917Y010461D01*
X012758Y010620D02*
X012440Y010620D01*
X012440Y010778D02*
X012616Y010778D01*
X012560Y010937D02*
X012440Y010937D01*
X012440Y011095D02*
X012560Y011095D01*
X012560Y011254D02*
X012440Y011254D01*
X012440Y011412D02*
X012560Y011412D01*
X012560Y011571D02*
X012447Y011571D01*
X011560Y011563D02*
X011560Y009440D01*
X010340Y009440D01*
X010495Y009595D01*
X010495Y009800D01*
X010495Y010005D01*
X010205Y010295D01*
X010000Y010295D01*
X010000Y009800D01*
X010000Y009800D01*
X010495Y009800D01*
X010000Y009800D01*
X010000Y009800D01*
X010000Y009800D01*
X009505Y009800D01*
X009505Y010005D01*
X009795Y010295D01*
X010000Y010295D01*
X010000Y009800D01*
X009505Y009800D01*
X009505Y009595D01*
X009739Y009361D01*
X009627Y009249D01*
X009127Y008749D01*
X009060Y008588D01*
X009060Y006432D01*
X008818Y006190D01*
X008759Y006190D01*
X008840Y006385D01*
X008840Y006615D01*
X008752Y006829D01*
X008589Y006992D01*
X008569Y007000D01*
X008589Y007008D01*
X008752Y007171D01*
X008840Y007385D01*
X008840Y007615D01*
X008752Y007829D01*
X008589Y007992D01*
X008569Y008000D01*
X008589Y008008D01*
X008752Y008171D01*
X008840Y008385D01*
X008840Y008615D01*
X008752Y008829D01*
X008589Y008992D01*
X008569Y009000D01*
X008589Y009008D01*
X008752Y009171D01*
X008840Y009385D01*
X008840Y009615D01*
X008752Y009829D01*
X008589Y009992D01*
X008569Y010000D01*
X008589Y010008D01*
X008752Y010171D01*
X008840Y010385D01*
X008840Y010615D01*
X008752Y010829D01*
X008589Y010992D01*
X008569Y011000D01*
X008589Y011008D01*
X008752Y011171D01*
X008840Y011385D01*
X008840Y011615D01*
X008752Y011829D01*
X008589Y011992D01*
X008569Y012000D01*
X008589Y012008D01*
X008600Y012020D01*
X009301Y012020D01*
X009520Y011801D01*
X009520Y011618D01*
X009462Y011560D01*
X009365Y011326D01*
X009365Y011074D01*
X009462Y010840D01*
X009640Y010662D01*
X009874Y010565D01*
X010126Y010565D01*
X010360Y010662D01*
X010538Y010840D01*
X010635Y011074D01*
X010635Y011326D01*
X010538Y011560D01*
X010480Y011618D01*
X010480Y011858D01*
X010932Y012310D01*
X011433Y012310D01*
X011380Y012257D01*
X011380Y011743D01*
X011560Y011563D01*
X011553Y011571D02*
X010528Y011571D01*
X010480Y011729D02*
X011394Y011729D01*
X011380Y011888D02*
X010510Y011888D01*
X010668Y012046D02*
X011380Y012046D01*
X011380Y012205D02*
X010827Y012205D01*
X010216Y012839D02*
X009840Y012839D01*
X009999Y012680D02*
X010058Y012680D01*
X010375Y012997D02*
X008576Y012997D01*
X008693Y011888D02*
X009434Y011888D01*
X009520Y011729D02*
X008793Y011729D01*
X008840Y011571D02*
X009472Y011571D01*
X009401Y011412D02*
X008840Y011412D01*
X008786Y011254D02*
X009365Y011254D01*
X009365Y011095D02*
X008675Y011095D01*
X008644Y010937D02*
X009422Y010937D01*
X009524Y010778D02*
X008773Y010778D01*
X008838Y010620D02*
X009742Y010620D01*
X010258Y010620D02*
X011560Y010620D01*
X011560Y010778D02*
X010476Y010778D01*
X010578Y010937D02*
X011560Y010937D01*
X011560Y011095D02*
X010635Y011095D01*
X010635Y011254D02*
X011560Y011254D01*
X011560Y011412D02*
X010599Y011412D01*
X011560Y010461D02*
X008840Y010461D01*
X008806Y010303D02*
X011560Y010303D01*
X011560Y010144D02*
X010356Y010144D01*
X010495Y009986D02*
X011560Y009986D01*
X011560Y009827D02*
X010495Y009827D01*
X010495Y009669D02*
X011560Y009669D01*
X011560Y009510D02*
X010410Y009510D01*
X010000Y009827D02*
X010000Y009827D01*
X010000Y009986D02*
X010000Y009986D01*
X010000Y010144D02*
X010000Y010144D01*
X009644Y010144D02*
X008724Y010144D01*
X008595Y009986D02*
X009505Y009986D01*
X009505Y009827D02*
X008752Y009827D01*
X008818Y009669D02*
X009505Y009669D01*
X009590Y009510D02*
X008840Y009510D01*
X008826Y009352D02*
X009729Y009352D01*
X009571Y009193D02*
X008761Y009193D01*
X008615Y009035D02*
X009412Y009035D01*
X009254Y008876D02*
X008704Y008876D01*
X008798Y008718D02*
X009114Y008718D01*
X009060Y008559D02*
X008840Y008559D01*
X008840Y008401D02*
X009060Y008401D01*
X009060Y008242D02*
X008781Y008242D01*
X008664Y008084D02*
X009060Y008084D01*
X009060Y007925D02*
X008655Y007925D01*
X008777Y007767D02*
X009060Y007767D01*
X009060Y007608D02*
X008840Y007608D01*
X008840Y007450D02*
X009060Y007450D01*
X009060Y007291D02*
X008801Y007291D01*
X008713Y007133D02*
X009060Y007133D01*
X009060Y006974D02*
X008606Y006974D01*
X008757Y006816D02*
X009060Y006816D01*
X009060Y006657D02*
X008823Y006657D01*
X008840Y006499D02*
X009060Y006499D01*
X008968Y006340D02*
X008822Y006340D01*
X011617Y004438D02*
X029520Y004438D01*
X029520Y004280D02*
X011580Y004280D01*
X011480Y004121D02*
X029520Y004121D01*
X029520Y003963D02*
X011480Y003963D01*
X011480Y003804D02*
X029520Y003804D01*
X029520Y003646D02*
X011480Y003646D01*
X011480Y003487D02*
X029520Y003487D01*
X029520Y003329D02*
X011480Y003329D01*
X011480Y003170D02*
X029520Y003170D01*
X029520Y003012D02*
X011480Y003012D01*
X011459Y002853D02*
X029520Y002853D01*
X029520Y002695D02*
X011373Y002695D01*
X011215Y002536D02*
X029520Y002536D01*
X029520Y002378D02*
X011056Y002378D01*
X010898Y002219D02*
X029520Y002219D01*
X029520Y002061D02*
X010693Y002061D01*
X010333Y003012D02*
X009087Y003012D01*
X010520Y003804D02*
X007620Y003804D01*
X007641Y003963D02*
X009717Y003963D01*
X010283Y003963D02*
X010520Y003963D01*
X010520Y004121D02*
X010441Y004121D01*
X010520Y003646D02*
X007522Y003646D01*
X006913Y003012D02*
X005667Y003012D01*
X005509Y003170D02*
X010491Y003170D01*
X009000Y001902D02*
X028500Y001902D01*
X029500Y001902D02*
X029520Y001902D01*
X029520Y004597D02*
X014775Y004597D01*
X014934Y004755D02*
X029520Y004755D01*
X029520Y004914D02*
X015092Y004914D01*
X015251Y005072D02*
X029520Y005072D01*
X029520Y005231D02*
X015408Y005231D01*
X015474Y005389D02*
X029520Y005389D01*
X029520Y005548D02*
X015480Y005548D01*
X015480Y005706D02*
X020491Y005706D01*
X020291Y005865D02*
X015480Y005865D01*
X015480Y006023D02*
X020158Y006023D01*
X020066Y006182D02*
X015480Y006182D01*
X015480Y006340D02*
X020016Y006340D01*
X019979Y006499D02*
X015565Y006499D01*
X015688Y007608D02*
X018929Y007608D01*
X019020Y007767D02*
X015791Y007767D01*
X015840Y007925D02*
X019020Y007925D01*
X019020Y008084D02*
X015840Y008084D01*
X015788Y008242D02*
X019020Y008242D01*
X019020Y008401D02*
X015680Y008401D01*
X015426Y008559D02*
X016790Y008559D01*
X016809Y008540D02*
X016540Y008809D01*
X016540Y008990D01*
X016990Y008990D01*
X016990Y009010D01*
X016990Y009460D01*
X016809Y009460D01*
X016540Y009191D01*
X016540Y009010D01*
X016990Y009010D01*
X017010Y009010D01*
X017010Y009460D01*
X017191Y009460D01*
X017460Y009191D01*
X017460Y009010D01*
X017010Y009010D01*
X017010Y008990D01*
X017460Y008990D01*
X017460Y008809D01*
X017191Y008540D01*
X017010Y008540D01*
X017010Y008990D01*
X016990Y008990D01*
X016990Y008540D01*
X016809Y008540D01*
X016990Y008559D02*
X017010Y008559D01*
X017010Y008718D02*
X016990Y008718D01*
X016990Y008876D02*
X017010Y008876D01*
X017010Y009035D02*
X016990Y009035D01*
X016990Y009193D02*
X017010Y009193D01*
X017010Y009352D02*
X016990Y009352D01*
X016701Y009352D02*
X015525Y009352D01*
X015655Y009193D02*
X016542Y009193D01*
X016540Y009035D02*
X015700Y009035D01*
X015682Y008876D02*
X016540Y008876D01*
X016632Y008718D02*
X015599Y008718D01*
X015000Y009035D02*
X015000Y009035D01*
X015000Y009193D02*
X015000Y009193D01*
X015000Y009352D02*
X015000Y009352D01*
X014475Y009352D02*
X014021Y009352D01*
X014179Y009193D02*
X014345Y009193D01*
X013367Y009510D02*
X019020Y009510D01*
X019020Y009352D02*
X017299Y009352D01*
X017458Y009193D02*
X019020Y009193D01*
X019020Y009035D02*
X017460Y009035D01*
X017460Y008876D02*
X019020Y008876D01*
X019020Y008718D02*
X017368Y008718D01*
X017210Y008559D02*
X019020Y008559D01*
X019980Y008559D02*
X019984Y008559D01*
X019980Y008718D02*
X020026Y008718D01*
X019980Y008876D02*
X020088Y008876D01*
X020179Y009035D02*
X019980Y009035D01*
X019980Y009193D02*
X020328Y009193D01*
X020556Y009352D02*
X019980Y009352D01*
X019980Y009510D02*
X027985Y009510D01*
X028287Y009669D02*
X019980Y009669D01*
X019980Y009827D02*
X028464Y009827D01*
X028462Y009986D02*
X026008Y009986D01*
X026209Y010144D02*
X028380Y010144D01*
X027944Y010303D02*
X026342Y010303D01*
X024892Y009986D02*
X021608Y009986D01*
X021809Y010144D02*
X024691Y010144D01*
X024558Y010303D02*
X021942Y010303D01*
X022033Y010461D02*
X024467Y010461D01*
X024416Y010620D02*
X022084Y010620D01*
X022121Y010778D02*
X024379Y010778D01*
X024379Y010937D02*
X022121Y010937D01*
X022107Y011095D02*
X024393Y011095D01*
X024436Y011254D02*
X022064Y011254D01*
X021991Y011412D02*
X024509Y011412D01*
X024606Y011571D02*
X021894Y011571D01*
X021736Y011729D02*
X024764Y011729D01*
X025018Y011888D02*
X021482Y011888D01*
X020948Y012522D02*
X025552Y012522D01*
X025305Y012680D02*
X021195Y012680D01*
X021353Y012839D02*
X025147Y012839D01*
X025054Y012997D02*
X021446Y012997D01*
X021517Y013156D02*
X024983Y013156D01*
X024941Y013314D02*
X021559Y013314D01*
X021571Y013473D02*
X024929Y013473D01*
X024929Y013631D02*
X021571Y013631D01*
X021531Y013790D02*
X024969Y013790D01*
X024873Y013948D02*
X021478Y013948D01*
X021387Y014107D02*
X024715Y014107D01*
X024578Y014265D02*
X021250Y014265D01*
X021043Y014424D02*
X024520Y014424D01*
X024520Y014582D02*
X020980Y014582D01*
X020980Y014741D02*
X024520Y014741D01*
X024520Y014899D02*
X020980Y014899D01*
X020980Y015058D02*
X024520Y015058D01*
X024520Y015216D02*
X020980Y015216D01*
X021053Y015375D02*
X024520Y015375D01*
X024387Y015533D02*
X021613Y015533D01*
X021760Y015692D02*
X024240Y015692D01*
X024174Y015850D02*
X021826Y015850D01*
X021840Y016009D02*
X024160Y016009D01*
X024181Y016167D02*
X021819Y016167D01*
X021753Y016326D02*
X024247Y016326D01*
X024404Y016484D02*
X021596Y016484D01*
X024228Y017594D02*
X016004Y017594D01*
X016090Y017435D02*
X024386Y017435D01*
X024520Y017277D02*
X016135Y017277D01*
X016135Y017118D02*
X024520Y017118D01*
X024520Y016960D02*
X016088Y016960D01*
X015999Y016801D02*
X024520Y016801D01*
X024520Y016643D02*
X015813Y016643D01*
X013755Y014582D02*
X011097Y014582D01*
X011732Y014424D02*
X016398Y014424D01*
X016520Y014265D02*
X011914Y014265D01*
X012072Y014107D02*
X016520Y014107D01*
X016520Y013948D02*
X015632Y013948D01*
X015768Y013790D02*
X016520Y013790D01*
X016520Y013631D02*
X015834Y013631D01*
X015840Y013473D02*
X016520Y013473D01*
X016520Y013314D02*
X015811Y013314D01*
X015736Y013156D02*
X016520Y013156D01*
X016520Y012997D02*
X015576Y012997D01*
X015742Y012839D02*
X016520Y012839D01*
X016520Y012680D02*
X015813Y012680D01*
X015840Y012522D02*
X016520Y012522D01*
X016514Y012363D02*
X015831Y012363D01*
X015765Y012205D02*
X016400Y012205D01*
X016400Y012046D02*
X015626Y012046D01*
X015469Y011888D02*
X016400Y011888D01*
X016422Y011729D02*
X015637Y011729D01*
X015694Y011571D02*
X016560Y011571D01*
X016560Y011412D02*
X015692Y011412D01*
X015625Y011254D02*
X016560Y011254D01*
X019020Y010144D02*
X012440Y010144D01*
X012440Y009986D02*
X019020Y009986D01*
X019020Y009827D02*
X012440Y009827D01*
X012440Y009669D02*
X019020Y009669D01*
X019980Y009986D02*
X020492Y009986D01*
X020291Y010144D02*
X019980Y010144D01*
X019980Y010303D02*
X020158Y010303D01*
X020067Y010461D02*
X019980Y010461D01*
X019980Y010620D02*
X020016Y010620D01*
X019993Y011095D02*
X019980Y011095D01*
X019980Y011254D02*
X020036Y011254D01*
X019980Y011412D02*
X020109Y011412D01*
X020206Y011571D02*
X019980Y011571D01*
X019980Y011729D02*
X020364Y011729D01*
X020618Y011888D02*
X020066Y011888D01*
X020225Y012046D02*
X029520Y012046D01*
X029520Y011888D02*
X025882Y011888D01*
X026136Y011729D02*
X029520Y011729D01*
X029520Y011571D02*
X026294Y011571D01*
X026391Y011412D02*
X029520Y011412D01*
X029520Y011254D02*
X028110Y011254D01*
X029424Y011095D02*
X029520Y011095D01*
X029520Y012205D02*
X020383Y012205D01*
X020542Y012363D02*
X029520Y012363D01*
X029520Y012522D02*
X026448Y012522D01*
X026695Y012680D02*
X029520Y012680D01*
X029520Y012839D02*
X026853Y012839D01*
X026946Y012997D02*
X029520Y012997D01*
X029520Y013156D02*
X027017Y013156D01*
X027059Y013314D02*
X029520Y013314D01*
X029520Y013473D02*
X027071Y013473D01*
X027071Y013631D02*
X029520Y013631D01*
X029520Y013790D02*
X027031Y013790D01*
X026978Y013948D02*
X029520Y013948D01*
X029520Y014107D02*
X026887Y014107D01*
X026750Y014265D02*
X029520Y014265D01*
X029520Y014424D02*
X026543Y014424D01*
X025597Y014582D02*
X029520Y014582D01*
X029520Y014741D02*
X025480Y014741D01*
X025480Y014899D02*
X029520Y014899D01*
X029520Y015058D02*
X025480Y015058D01*
X025480Y015216D02*
X029520Y015216D01*
X029520Y015375D02*
X025480Y015375D01*
X025613Y015533D02*
X029520Y015533D01*
X029520Y015692D02*
X025760Y015692D01*
X025826Y015850D02*
X029520Y015850D01*
X029520Y016009D02*
X025840Y016009D01*
X025819Y016167D02*
X029520Y016167D01*
X029520Y016326D02*
X025753Y016326D01*
X025596Y016484D02*
X029520Y016484D01*
X029520Y016643D02*
X025480Y016643D01*
X025480Y016801D02*
X029520Y016801D01*
X029520Y016960D02*
X025480Y016960D01*
X025480Y017118D02*
X029520Y017118D01*
X029520Y017277D02*
X025480Y017277D01*
X025480Y017435D02*
X029520Y017435D01*
X029520Y017594D02*
X025480Y017594D01*
X025415Y017752D02*
X029520Y017752D01*
X029520Y017911D02*
X025268Y017911D01*
X025110Y018069D02*
X028550Y018069D01*
X028314Y018228D02*
X024951Y018228D01*
X024793Y018386D02*
X028164Y018386D01*
X028072Y018545D02*
X024634Y018545D01*
X024707Y018472D02*
X024707Y018472D01*
X029450Y018069D02*
X029520Y018069D01*
X027682Y009352D02*
X025944Y009352D01*
X026172Y009193D02*
X027379Y009193D01*
X027077Y009035D02*
X026321Y009035D01*
X024956Y009352D02*
X021544Y009352D01*
X021772Y009193D02*
X024728Y009193D01*
X024579Y009035D02*
X021921Y009035D01*
X022012Y008876D02*
X024488Y008876D01*
X024426Y008718D02*
X022074Y008718D01*
X022116Y008559D02*
X024384Y008559D01*
X024379Y008401D02*
X022121Y008401D01*
X022117Y008242D02*
X024383Y008242D01*
X024426Y008084D02*
X022074Y008084D01*
X022013Y007925D02*
X024487Y007925D01*
X024579Y007767D02*
X021921Y007767D01*
X021773Y007608D02*
X024727Y007608D01*
X024765Y007450D02*
X021735Y007450D01*
X021894Y007291D02*
X024606Y007291D01*
X024509Y007133D02*
X021991Y007133D01*
X022064Y006974D02*
X024436Y006974D01*
X024393Y006816D02*
X022107Y006816D01*
X022121Y006657D02*
X024379Y006657D01*
X024379Y006499D02*
X022121Y006499D01*
X022084Y006340D02*
X024416Y006340D01*
X024466Y006182D02*
X022034Y006182D01*
X021942Y006023D02*
X024558Y006023D01*
X024691Y005865D02*
X021809Y005865D01*
X021609Y005706D02*
X024891Y005706D01*
X026009Y005706D02*
X029520Y005706D01*
X029520Y005865D02*
X026209Y005865D01*
X026342Y006023D02*
X029520Y006023D01*
X029520Y006182D02*
X026434Y006182D01*
X026484Y006340D02*
X029520Y006340D01*
X029520Y006499D02*
X026521Y006499D01*
X026521Y006657D02*
X029520Y006657D01*
X029520Y006816D02*
X026507Y006816D01*
X026464Y006974D02*
X029520Y006974D01*
X029520Y007133D02*
X026391Y007133D01*
X026294Y007291D02*
X029520Y007291D01*
X029520Y007450D02*
X026135Y007450D01*
X026173Y007608D02*
X029520Y007608D01*
X029520Y007767D02*
X026321Y007767D01*
X027008Y007925D02*
X029520Y007925D01*
X029520Y008084D02*
X027330Y008084D01*
X027633Y008242D02*
X029520Y008242D01*
X029520Y008401D02*
X027935Y008401D01*
X028238Y008559D02*
X029520Y008559D01*
X029520Y008718D02*
X028541Y008718D01*
X028843Y008876D02*
X029520Y008876D01*
X029520Y009035D02*
X029411Y009035D01*
X020365Y007450D02*
X019980Y007450D01*
X019980Y007608D02*
X020327Y007608D01*
X020179Y007767D02*
X019980Y007767D01*
X019980Y007925D02*
X020087Y007925D01*
X020026Y008084D02*
X019980Y008084D01*
X019980Y008242D02*
X019983Y008242D01*
X019933Y007291D02*
X020206Y007291D01*
X020109Y007133D02*
X019811Y007133D01*
X019653Y006974D02*
X020036Y006974D01*
X019993Y006816D02*
X019494Y006816D01*
X019336Y006657D02*
X019979Y006657D01*
X012633Y009510D02*
X012440Y009510D01*
X012440Y009352D02*
X012475Y009352D01*
X004239Y009193D02*
X003815Y009193D01*
X003974Y009352D02*
X004174Y009352D01*
X004160Y009510D02*
X004132Y009510D01*
X000520Y008876D02*
X000480Y008876D01*
X000480Y008718D02*
X000520Y008718D01*
X000520Y008559D02*
X000480Y008559D01*
X000480Y008401D02*
X000520Y008401D01*
X000520Y008242D02*
X000480Y008242D01*
X000480Y008084D02*
X000520Y008084D01*
X000520Y007925D02*
X000480Y007925D01*
X000480Y007767D02*
X000520Y007767D01*
X000520Y007608D02*
X000480Y007608D01*
X000480Y007450D02*
X000520Y007450D01*
X000520Y007291D02*
X000480Y007291D01*
X000480Y007133D02*
X000520Y007133D01*
X000520Y006974D02*
X000480Y006974D01*
X000480Y006816D02*
X000520Y006816D01*
X000520Y006657D02*
X000480Y006657D01*
X000480Y006499D02*
X000520Y006499D01*
X000520Y006340D02*
X000480Y006340D01*
X000480Y006182D02*
X000520Y006182D01*
X000520Y006023D02*
X000480Y006023D01*
X000480Y005865D02*
X000520Y005865D01*
X000520Y005706D02*
X000480Y005706D01*
X000480Y005548D02*
X000520Y005548D01*
X000520Y005389D02*
X000480Y005389D01*
X000480Y005231D02*
X000520Y005231D01*
X000520Y005072D02*
X000480Y005072D01*
X000480Y004914D02*
X000520Y004914D01*
X000520Y004755D02*
X000480Y004755D01*
X000480Y004597D02*
X000520Y004597D01*
X000520Y004438D02*
X000480Y004438D01*
X000480Y004280D02*
X000572Y004280D01*
X000480Y004121D02*
X000700Y004121D01*
X000859Y003963D02*
X000480Y003963D01*
X000480Y003804D02*
X001017Y003804D01*
X001176Y003646D02*
X000480Y003646D01*
X000480Y003487D02*
X004520Y003487D01*
X004520Y003329D02*
X000480Y003329D01*
X000480Y003170D02*
X004520Y003170D01*
X004520Y003012D02*
X000480Y003012D01*
X000480Y002853D02*
X004541Y002853D01*
X004627Y002695D02*
X000480Y002695D01*
X000480Y002536D02*
X004785Y002536D01*
X004944Y002378D02*
X000480Y002378D01*
X000480Y002219D02*
X005102Y002219D01*
X005307Y002061D02*
X000480Y002061D01*
X000480Y001902D02*
X000500Y001902D01*
X000480Y018069D02*
X000550Y018069D01*
D21*
X011250Y010250D03*
X012750Y010250D03*
X016250Y013750D03*
X017750Y013750D03*
D22*
X017000Y014500D02*
X017000Y012000D01*
X015000Y012500D02*
X014500Y012500D01*
X014000Y012000D01*
X015000Y013500D02*
X012000Y013500D01*
X011500Y014000D01*
X011000Y014000D01*
X010500Y014500D01*
X010500Y016500D01*
X010200Y016800D01*
X009000Y016800D01*
X008800Y018000D02*
X009000Y018200D01*
X013000Y018200D01*
X013500Y017700D01*
X013500Y017000D01*
X015300Y017000D01*
X015500Y017200D01*
X013500Y016000D02*
X013500Y015500D01*
X014000Y015000D01*
X016500Y015000D01*
X017000Y014500D01*
X019500Y012000D02*
X020500Y013000D01*
X020500Y013500D01*
X020500Y015500D01*
X021000Y016000D01*
X024300Y018200D02*
X013000Y018200D01*
X008800Y018000D02*
X005500Y018000D01*
X005000Y017500D01*
X005000Y014500D01*
X002500Y014500D01*
X002000Y014000D01*
X002000Y011500D01*
X001500Y011500D01*
X001000Y011000D01*
X001000Y004500D01*
X001500Y004000D01*
X005000Y004000D01*
X005000Y003000D01*
X005500Y002500D01*
X007300Y002500D01*
X008700Y002500D02*
X010500Y002500D01*
X011000Y003000D01*
X011000Y004500D01*
X011500Y005000D01*
X014500Y005000D01*
X015000Y005500D01*
X015000Y007000D01*
X019000Y007000D01*
X019500Y007500D01*
X019500Y012000D01*
X025000Y014500D02*
X026000Y013500D01*
X025000Y014500D02*
X025000Y016000D01*
X025000Y017500D01*
X024300Y018200D01*
X025450Y010900D02*
X027600Y010900D01*
X029000Y010500D01*
X029000Y009500D02*
X026900Y008400D01*
X025450Y008400D01*
X010000Y011200D02*
X010000Y012000D01*
X009500Y012500D01*
X008000Y012500D01*
X009500Y014500D02*
X010000Y014000D01*
X009500Y014500D02*
X007000Y014500D01*
X007500Y004500D02*
X010000Y004500D01*
X007500Y004500D02*
X007000Y004000D01*
M02*
