%
M48
M72
T01C0.0320
T02C0.0400
T03C0.1102
%
T01
X7300Y2500
X8700Y2500
X9000Y6000
X10000Y6000
X11000Y7000
X11000Y8000
X11000Y9000
X11000Y11000
X11000Y12000
X11000Y13000
X10000Y14000
X9000Y14000
X13800Y12000
X15200Y12000
X15200Y8000
X13800Y8000
X19500Y16000
X23500Y16000
X8700Y17500
X7300Y17500
T02
X7000Y14000
X5000Y14000
X2000Y11500
X2000Y10500
X2000Y9500
X2000Y8500
X5000Y6000
X7000Y6000
X7000Y9000
X9000Y9000
X9000Y11000
X7000Y11000
X28000Y10500
X28000Y9500
T03
X1000Y1000
X19000Y13500
X20000Y10900
X23500Y10900
X23500Y8400
X23500Y6620
X20000Y6620
X20000Y8400
X24500Y13500
X29000Y19000
X29000Y1000
X1000Y19000
M30
