%
M48
M72
T01C0.0400
T02C0.0433
T03C0.1260
%
T01
X6500Y5000
X7500Y5000
X8500Y5000
X9500Y5000
X10500Y5000
X11500Y5000
X12500Y5000
X13500Y5000
X14500Y5000
X15500Y5000
X16500Y5000
X17500Y5000
X18500Y5000
X18500Y6000
X17500Y6000
X16500Y6000
X15500Y6000
X14500Y6000
X13500Y6000
X12500Y6000
X11500Y6000
X10500Y6000
X9500Y6000
X8500Y6000
X7500Y6000
X6500Y6000
T02
X2500Y1500
X2500Y2500
X2500Y4000
X2500Y5000
X2500Y6500
X2500Y7500
X2500Y9000
X2500Y10000
X7000Y10500
X8000Y10500
X9500Y10500
X10500Y10500
X12000Y10500
X13000Y10500
X14500Y10500
X15500Y10500
X17000Y10500
X18000Y10500
X22000Y10000
X22000Y9000
X22000Y7500
X22000Y6500
X22000Y5000
X22000Y4000
X22000Y2500
X22000Y1500
T03
X13000Y1500
X22000Y12500
X2500Y12500
M30
