%
M48
M72
T01C0.0236
T02C0.0320
T03C0.0360
T04C0.0400
T05C0.1102
%
T01
X11250Y10250
X12750Y10250
X16250Y13750
X17750Y13750
T02
X15000Y13500
X15000Y12500
X15000Y11500
X15000Y9000
X15000Y8000
X15000Y7000
X11000Y4500
X10000Y4500
X8700Y2500
X7300Y2500
X8000Y6500
X8000Y7500
X8000Y8500
X8000Y9500
X8000Y10500
X8000Y11500
X8000Y12500
X10000Y11200
X10000Y9800
X5000Y9500
X5000Y8500
X5000Y7500
X5000Y6500
X5000Y10500
X5000Y11500
X5000Y12500
X10000Y14000
X11000Y14000
X13500Y16000
X12750Y16500
X13500Y17000
X15500Y17200
X15500Y15800
X21000Y16000
X25000Y16000
X9000Y16800
X9000Y18200
T03
X17000Y12000
X17000Y9000
T04
X13000Y9000
X13000Y7000
X7000Y4000
X5000Y4000
X2000Y8500
X2000Y9500
X2000Y10500
X2000Y11500
X3000Y11500
X4000Y11500
X4000Y13500
X3000Y13500
X5000Y14500
X7000Y14500
X12000Y12000
X14000Y12000
X29000Y10500
X29000Y9500
T05
X1000Y1000
X20500Y13500
X21050Y10900
X21050Y8400
X21050Y6620
X25450Y6620
X25450Y8400
X25450Y10900
X26000Y13500
X29000Y19000
X29000Y1000
X1000Y19000
M30
